<svg xmlns="http://www.w3.org/2000/svg" width="62" height="62"><path d="M30.43 29.042a1.035 1.035 0 00-1.387.461 7.172 7.172 0 01-6.31 3.563 7.132 7.132 0 01-6.31-3.566 1.033 1.033 0 00-1.846.928 9.2 9.2 0 008.157 4.7 9.2 9.2 0 008.158-4.7 1.032 1.032 0 00-.462-1.386zM19.508 16.679c.307-1.741-1.648-3.438-4.549-3.949a8.961 8.961 0 00-1.555-.139c-2.228 0-3.826.9-4.072 2.3-.306 1.74 1.649 3.438 4.55 3.949a8.957 8.957 0 001.554.139c2.229-.004 3.827-.905 4.072-2.3zm-8.141-1.434c.021-.12.607-.588 2.037-.588a6.8 6.8 0 011.2.109c1.971.347 2.919 1.3 2.874 1.556-.021.119-.608.587-2.038.587a7.048 7.048 0 01-1.195-.107c-1.974-.349-2.923-1.302-2.877-1.557zm34.1-8.012c0-6.151-3-7.234-9.3-7.234a12.934 12.934 0 00-5.159 1.308A19.436 19.436 0 0122.733 3.1a19.435 19.435 0 01-8.273-1.794A12.933 12.933 0 009.3 0C3 0 0 1.082 0 7.232c0 13.678 8.025 40.3 22.733 40.3s22.734-26.621 22.734-40.3zM22.733 45.465c-12.82 0-20.667-24.753-20.667-38.233 0-4.3 1.217-5.167 7.233-5.167a11.022 11.022 0 014.374 1.152 21.493 21.493 0 009.059 1.948 21.5 21.5 0 009.06-1.948 11.021 11.021 0 014.373-1.152c6.017 0 7.233.871 7.233 5.167.002 13.48-7.843 38.233-20.665 38.233zm9.329-32.874a8.959 8.959 0 00-1.554.139 7.743 7.743 0 00-3.21 1.292 2.755 2.755 0 00-1.339 2.658c.246 1.394 1.845 2.3 4.072 2.3a8.872 8.872 0 001.554-.14c2.9-.51 4.857-2.209 4.55-3.95-.246-1.398-1.845-2.299-4.073-2.299zm-.837 4.209a6.957 6.957 0 01-1.195.107c-1.429 0-2.016-.468-2.038-.588a1.18 1.18 0 01.536-.64 5.747 5.747 0 012.339-.915 6.8 6.8 0 011.195-.109c1.43 0 2.017.469 2.037.587.045.258-.899 1.212-2.874 1.558zM52.7 14.466a11.245 11.245 0 00-4.742 1.144 47.95 47.95 0 01-1.338.538 1.033 1.033 0 10.731 1.932c.511-.193.968-.382 1.4-.56a9.238 9.238 0 013.952-.987c6.017 0 7.233.87 7.233 5.167 0 13.479-7.845 38.233-20.667 38.233-4.791 0-9.758-3.849-13.285-10.3a1.033 1.033 0 10-1.813.992c3.9 7.119 9.541 11.37 15.1 11.37C53.976 62 62 35.377 62 21.7c0-6.152-3-7.234-9.3-7.234zM39.267 43.4a9.2 9.2 0 00-8.157 4.7 1.034 1.034 0 001.849.925 7.367 7.367 0 0112.62 0 1.032 1.032 0 00.923.567 1.021 1.021 0 00.462-.11 1.033 1.033 0 00.462-1.387 9.2 9.2 0 00-8.159-4.695zm13.308-14.048c-.246-1.393-1.845-2.294-4.072-2.294a8.949 8.949 0 00-1.554.14 7.712 7.712 0 00-3.21 1.291 2.759 2.759 0 00-1.34 2.657c.246 1.394 1.844 2.3 4.072 2.3a8.88 8.88 0 001.554-.139c2.901-.516 4.857-2.212 4.55-3.955zm-6.1 2.024c-1.429 0-2.016-.468-2.038-.588a1.176 1.176 0 01.536-.639 5.749 5.749 0 012.338-.916 6.894 6.894 0 011.195-.109c1.43 0 2.017.469 2.038.587.045.254-.9 1.21-2.875 1.557a6.869 6.869 0 01-1.198.108z" fill="#393637" fill-rule="evenodd"/></svg>