<svg xmlns="http://www.w3.org/2000/svg" width="53" height="62"><path data-name="Forma 1" d="M50.9 34.631a44.33 44.33 0 00-6.141-9.94.885.885 0 00-1.385 1.1 42.57 42.57 0 015.9 9.536 20.747 20.747 0 011.856 10.5 12.821 12.821 0 01-4.43 8.445 22.1 22.1 0 01-8.331 4.3 43.481 43.481 0 01-11.851 1.657h-.039a43.553 43.553 0 01-11.852-1.657 22.1 22.1 0 01-8.331-4.3 12.819 12.819 0 01-4.423-8.442c-.585-5.192 1.326-11 5.679-17.256A67.553 67.553 0 0117.4 17.581h18.2a75.436 75.436 0 014.176 4.084.885.885 0 101.287-1.214 76.66 76.66 0 00-3.432-3.406A2.758 2.758 0 0036 12.062h-.25A51.6 51.6 0 0039 6.718c1.321-2.593 1.708-4.327 1.217-5.456A2.085 2.085 0 0038.526.037c-1.184-.175-2.747.3-4.726.9a25.594 25.594 0 01-7.3 1.45A25.593 25.593 0 0119.2.94c-1.978-.6-3.542-1.077-4.726-.9a2.085 2.085 0 00-1.689 1.224C12.293 2.39 12.679 4.125 14 6.718a51.656 51.656 0 003.249 5.344H17a2.758 2.758 0 00-1.634 4.982C9.231 22.759-1.2 34.35.113 46.029c.769 6.825 5.627 11.752 14.048 14.249A44.662 44.662 0 0026.5 62h.361a44.883 44.883 0 0011.979-1.722c8.421-2.5 13.278-7.425 14.048-14.249A22.478 22.478 0 0050.9 34.631zM14.407 1.965a.325.325 0 01.324-.177 12.549 12.549 0 013.952.845A27.36 27.36 0 0026.5 4.159a27.357 27.357 0 007.816-1.526 12.577 12.577 0 013.952-.845.326.326 0 01.325.177c.079.181.619 1.982-4.538 9.438a4.123 4.123 0 00-.371.658H19.316a4.107 4.107 0 00-.371-.658c-5.157-7.456-4.616-9.257-4.538-9.438zM17 13.831h19a.99.99 0 110 1.98H17a.99.99 0 110-1.98zm19.68 14.5a14.4 14.4 0 00-24.266 7.22.885.885 0 101.733.361 12.61 12.61 0 11.036 5.347.885.885 0 00-1.728.385 14.392 14.392 0 1024.222-13.316zm-9.233 9.456l-.079-.03v-4.925l.13.009a5.129 5.129 0 012.105.617 1.7 1.7 0 00.671.242 1.173 1.173 0 00.9-1.2 1.545 1.545 0 00-1.231-1.13 8.535 8.535 0 00-2.457-.419h-.118V30.2a.559.559 0 00-.575-.412.5.5 0 00-.552.412v.782l-.108.012c-1.293.136-4.3.817-4.3 4.194 0 2.893 2.3 3.711 4.328 4.432l.081.028v5.667l-.131-.011a4.723 4.723 0 01-2.93-1.317 1.564 1.564 0 00-.82-.492 1.231 1.231 0 00-.946 1.2c0 1.036 1.834 2.57 4.707 2.615h.119v.838a.5.5 0 00.552.412.559.559 0 00.575-.412v-.888l.1-.014a4.391 4.391 0 004.119-4.658c.001-3.028-2.046-4.033-4.143-4.804zm-1.07-.387l-.164-.062c-1.262-.476-2.306-.984-2.306-2.386 0-1.163.807-1.878 2.334-2.069l.136-.017V37.4zm.991 7.854l-.143.027v-5.22l.169.072a2.826 2.826 0 012.116 2.71 2.334 2.334 0 01-2.142 2.415z" fill="#393637" fill-rule="evenodd"/></svg>