<svg xmlns="http://www.w3.org/2000/svg" width="62" height="62"><path data-name="Forma 1" d="M35.291 30.247a1 1 0 011.416 1.416l-1.126 1.123a1 1 0 01-1.416-1.414zm-5.8-5.99a1 1 0 111.416 1.416L29.685 26.9a1 1 0 01-1.416-1.415zm11.696 11.88a1 1 0 011.413 1.415l-1.126 1.125a1 1 0 01-1.416-1.416zm-40.91-25.2L10.949.274a1 1 0 111.416 1.414l-2.306 2.3L16 9.928a1 1 0 01-1.416 1.416L8.643 5.407 5.415 8.631l5.944 5.937a1 1 0 01-1.416 1.416L4 10.047l-2.306 2.3a1 1 0 11-1.417-1.412zm23.223 7.53a1 1 0 011.416 1.415l-1.126 1.124a1 1 0 01-1.416-1.414zm-13.848 2.05l.008-.007.009-.01L20.53 9.651l3.01-3.007a1 1 0 111.416 1.415l-2.306 2.3L51.433 39.1a1 1 0 010 1.414L48.445 43.5l4.246 4.242a1 1 0 010 1.416l-1.066 1.062 10.083 10.072a1 1 0 01-1.417 1.415L50.209 51.634l-1 1a1 1 0 01-1.416 0l-4.247-4.244-2.987 2.984a1 1 0 01-1.416 0L10.368 22.631l-2.306 2.3a1 1 0 11-1.416-1.411zm30.2 28.736l2.987-2.984a1 1 0 011.416 0l4.245 4.242 1-1 1.067-1.065-4.246-4.246a1 1 0 010-1.415l2.987-2.983-28.066-28.033-9.457 9.446z" fill="#393637" fill-rule="evenodd"/></svg>