<svg xmlns="http://www.w3.org/2000/svg" width="62" height="62"><path data-name="Forma 1" d="M45.272 29.9a9.557 9.557 0 00-7.258-1.083.908.908 0 10.459 1.757 7.758 7.758 0 015.884.893.907.907 0 00.915-1.567zm-21.29-1.079a9.557 9.557 0 00-7.258 1.079.907.907 0 00.915 1.567 7.758 7.758 0 015.884-.893.908.908 0 10.459-1.753zm14.006 16.565a7.686 7.686 0 00-13.98 0 .908.908 0 001.654.751 5.867 5.867 0 0110.671 0 .908.908 0 101.655-.751zm10.9-39.669a31.007 31.007 0 00-33.983-1.169l-1.752-3.36A2.131 2.131 0 0011.258.04a2.172 2.172 0 00-1.9 1.151c-5.371 10.336-5.121 9.851-5.144 9.9a7.505 7.505 0 00-.377 5 30.984 30.984 0 006.408 37.95.908.908 0 101.216-1.349 29.179 29.179 0 01-6.674-34.484A7.61 7.61 0 0016.148 19.8a.908.908 0 00-1.187-1.375 5.8 5.8 0 01-3.843 1.418 5.718 5.718 0 01-5.249-7.99c5.355-10.067 4.984-9.995 5.389-9.995.32.035-.194-.746 5.275 9.743a5.82 5.82 0 01.337 3.682.908.908 0 001.768.417 7.612 7.612 0 00-.48-4.91l-2.412-4.629A29.19 29.19 0 0147.838 7.2a.908.908 0 001.047-1.483zm3.378 2.763a.908.908 0 10-1.247 1.32 29.174 29.174 0 01-36.312 45.42.908.908 0 10-1.013 1.507A30.99 30.99 0 0052.266 8.48z" fill="#393637" fill-rule="evenodd"/></svg>