<svg xmlns="http://www.w3.org/2000/svg" viewBox="0 0 80 71"><path fill="#fff" d="M0 0h80v71H0z"/><path d="M40 0C26.2 0 15.1 11.2 15.1 25v12c0 7.5 6 13.6 13.5 13.6h.6v-2.1h-.6c-6.3 0-11.5-5.2-11.4-11.5V25C17.2 12.4 27.4 2.2 40 2.2c12.6 0 22.8 10.2 22.8 22.8v12c0 6.3-5.1 11.5-11.4 11.5h-.6v2.1h.6c7.5 0 13.5-6.1 13.5-13.6V25C64.9 11.2 53.8 0 40 0zm26.3 57.4L47.7 52v-5c3.7-2.5 5.8-6.7 5.8-11.2v-4h-4.6c-6.5 0-11.7-5.3-11.7-11.8v-1h-1c-5.3 0-9.6 4.4-9.6 9.7v7.1c0 4.5 2.2 8.6 5.8 11.2v5l-18.6 5.4c-2.9.8-4.8 3.4-4.8 6.3V71h2.1v-7.3c0-2 1.3-3.7 3.2-4.3l20.1-5.9v-5.4c.5.2 1 .4 1.6.6.1 0 .2 0 .3.1h.1c.1 0 .1 0 .2.1h7c.1 0 .2 0 .2-.1h.1c.1 0 .2 0 .3-.1.5-.2 1.1-.4 1.6-.6v5.4l20.1 5.9c1.9.6 3.2 2.3 3.2 4.3V71H71v-7.3c0-2.9-1.9-5.5-4.7-6.3zM43.4 46.7c-.2.1-.4.1-.5.2h-.1c-.2 0-.3.1-.5.1h-.1c-.1 0-.3 0-.4.1h-.1c-.2 0-.3 0-.5.1h-2.3c-.2 0-.3 0-.5-.1h-.1c-.1 0-.3 0-.4-.1h-.1c-.2 0-.3-.1-.5-.1h-.1c-.2 0-.3-.1-.5-.1h-.1c-4.8-1.5-8-6-8-11v-7.1c0-3.8 2.8-7 6.6-7.5.6 7.2 6.6 12.7 13.8 12.7h2.6v1.9c-.2 5-3.4 9.4-8.2 10.9z" fill="#75caf0"/></svg>