<svg xmlns="http://www.w3.org/2000/svg" viewBox="0 0 181.2 54.1"><path d="M47.5 48h-4.3V7.2h4.3v12.6s-1.7-.4-2.5-.2c-.4 5.8 2.5 7.9 2.5 7.9V48zM9.4 14.7l.2 18.7h-.2L5.2 7H-.2v40.8h5V40l-.2-18.6h.2L9 47.8h5.4V7h-5zm20.5-8.1h-1.2c-4.1 0-6.2 1.6-6.2 5.1V43c0 3.6 2.1 5.1 6.2 5.1h1.2c4.1 0 6.2-1.6 6.2-5.1V11.8c0-3.6-2.2-5.2-6.2-5.2zM31 43.2c0 1-.4 1.4-1.2 1.4h-1.1c-.8 0-1.2-.4-1.2-1.4V11.6c0-1 .4-1.4 1.2-1.4h1.1c.9 0 1.2.4 1.2 1.4v31.6zM67.3 7l-3.4 40.8h4.9l.9-13.1H73l.9 13.1h4.9L75.3 7h-8zm2.6 24L71 15.1l.3-5.6h.2l.3 5.6 1 15.9h-2.9zm38.3-24h-7.9v40.8h7.9c4.1 0 5.7-.6 5.7-4.4v-32c.1-3.8-1.6-4.4-5.7-4.4zm.7 35.8c0 1-.4 1.4-1.2 1.4h-2.3V10.6h2.3c.9 0 1.2.4 1.2 1.4v30.8zm12.5 5h12.8v-3.6h-7.7V27.6h7.1V24h-7.1V10.6h7.7V7h-12.8zm29.7-21.6c2.6-.1 3.5-1.8 3.5-3.8v-11c0-3.8-1.7-4.4-5.7-4.4h-7.6v40.8h5V28.1h2.4c.8 0 1.1.4 1.1 1.4v18.3h5V30.5c0-1.8-.5-4.2-3.7-4.3zm-1.6-3c0 .9-.3 1.3-1.1 1.4h-2.1v-14h2c.9 0 1.2.4 1.2 1.4v11.2zM175.6 7l-3 22.2-.8 6.6h-.3l-.8-6.6L167.6 7h-5.9v40.8h5V26.2l-.1-6.7h.2l3.2 28.3h3.2l3.3-28.3h.1l-.1 6.7v21.6h5V7z"/><path d="M61.4 13.7c-.7 0-1.4.1-2.1.2-1.5.3-2.7.9-3.7 1.9L57 6.4h.7c.5 0 1 0 1.4-.1C63.2 5.4 64 1.1 64 .9l.1-.7v-.3h-1c-.7 0-1.4.1-2.1.2-4.2.9-5.4 4.1-5.6 4.9l-.2 1-2.9 18.7c-1.9-4-5.7-4.2-5.8-4.2h-.8v.8c0 5.6 4.7 6.6 6.1 6.8l-4 25.6h1.6l2.2-14.2h.4c.6 0 1.1-.1 1.7-.2 2-.4 4.5-1.8 5.1-5.7l.1-.6v-.2l.1.2h-1c-.3 0-.8 0-1.4.2-.9.2-2.6.8-4 2.4L55 20.1c.3 0 .6.1.9.1.5 0 1 0 1.4-.1 4.1-.9 4.9-5.2 4.9-5.4l.1-.7v-.3h-.9z" fill="#8c9091"/></svg>