<svg xmlns="http://www.w3.org/2000/svg" width="1280" height="720"><path d="M563 478l190 40 52-371z" fill="#65bc6d" stroke="#65bc6d" stroke-width="1.51"/><path d="M805 147l-297 36 55 295z" fill="#8dd08a" stroke="#8dd08a" stroke-width="1.51"/><path d="M805 147L498-55l10 238z" fill="#b3dfae" stroke="#b3dfae" stroke-width="1.51"/><path d="M1100 217L836-6l-31 153z" fill="#89c28f" stroke="#89c28f" stroke-width="1.51"/><path d="M753 518l289-64-237-307z" fill="#53af62" stroke="#53af62" stroke-width="1.51"/><path d="M1042 454l58-237-295-70z" fill="#65af6c" stroke="#65af6c" stroke-width="1.51"/><path d="M836-6L498-55l307 202z" fill="#aadaab" stroke="#aadaab" stroke-width="1.51"/><path d="M508 183l-277 95 332 200z" fill="#9cd797" stroke="#9cd797" stroke-width="1.51"/><path d="M498-55L231 278l277-95z" fill="#c4e8bd" stroke="#c4e8bd" stroke-width="1.51"/><path d="M440 834l414-45-101-271z" fill="#368043" stroke="#368043" stroke-width="1.51"/><path d="M231 278l-7 178 339 22z" fill="#91d092" stroke="#91d092" stroke-width="1.51"/><path d="M753 518l265 259 24-323z" fill="#1f8640" stroke="#1f8640" stroke-width="1.51"/><path d="M440 834l313-316-190-40z" fill="#4f9f59" stroke="#4f9f59" stroke-width="1.51"/><path d="M836-6L513-303 498-55z" fill="#bae2b8" stroke="#bae2b8" stroke-width="1.51"/><path d="M1100 217l-58-310L836-6z" fill="#8dbf93" stroke="#8dbf93" stroke-width="1.51"/><path d="M854 789l164-12-265-259z" fill="#1a7438" stroke="#1a7438" stroke-width="1.51"/><path d="M1042 454l342-254-284 17z" fill="#53975a" stroke="#53975a" stroke-width="1.51"/><path d="M224 456l216 378 123-356z" fill="#6aac6f" stroke="#6aac6f" stroke-width="1.51"/><path d="M854 789l226 259-62-271z" fill="#0e642d" stroke="#0e642d" stroke-width="1.51"/><path d="M498-55l-302-93 35 426z" fill="#def2d8" stroke="#def2d8" stroke-width="1.51"/><path d="M752-444L513-303 836-6z" fill="#afdcaf" stroke="#afdcaf" stroke-width="1.51"/><path d="M231 278L-63 485l287-29z" fill="#a4d7a5" stroke="#a4d7a5" stroke-width="1.51"/><path d="M513-303L196-148l302 93z" fill="#d6efd1" stroke="#d6efd1" stroke-width="1.51"/><path d="M1100 217l245-367-303 57z" fill="#85ad88" stroke="#85ad88" stroke-width="1.51"/><path d="M1443 522l-59-322-342 254z" fill="#337d42" stroke="#337d42" stroke-width="1.51"/><path d="M440 834l47 209 367-254z" fill="#43844b" stroke="#43844b" stroke-width="1.51"/><path d="M173 865l314 178-47-209z" fill="#609063" stroke="#609063" stroke-width="1.51"/><path d="M224 456l-51 409 267-31z" fill="#6a956c" stroke="#6a956c" stroke-width="1.51"/><path d="M-55 736l228 129 51-409z" fill="#7ba27e" stroke="#7ba27e" stroke-width="1.51"/><path d="M1042-93L752-444 836-6z" fill="#9bcca0" stroke="#9bcca0" stroke-width="1.51"/><path d="M1345-150l-256-184-47 241z" fill="#85ae89" stroke="#85ae89" stroke-width="1.51"/><path d="M131-347L-37-66l233-82z" fill="#f2faee" stroke="#f2faee" stroke-width="1.51"/><path d="M1089-334L752-444l290 351z" fill="#94c39a" stroke="#94c39a" stroke-width="1.51"/><path d="M1345 814l98-292-401-68z" fill="#065e28" stroke="#065e28" stroke-width="1.51"/><path d="M-156 212l93 273 294-207z" fill="#c0e4bb" stroke="#c0e4bb" stroke-width="1.51"/><path d="M487 1043l293 55 74-309z" fill="#327d41" stroke="#327d41" stroke-width="1.51"/><path d="M1018 777l327 37-303-360z" fill="#005f26" stroke="#005f26" stroke-width="1.51"/><path d="M1732-127l-387-23 39 350z" fill="#7d9c80" stroke="#7d9c80" stroke-width="1.51"/><path d="M1384 200l-39-350-245 367z" fill="#759977" stroke="#759977" stroke-width="1.51"/><path d="M1080 1048l265-234-327-37z" fill="#052" stroke="#052" stroke-width="1.51"/><path d="M780 1098l300-50-226-259z" fill="#176c33" stroke="#176c33" stroke-width="1.51"/><path d="M196-148L-37-66l268 344z" fill="#eef8ea" stroke="#eef8ea" stroke-width="1.51"/><path d="M131-347l65 199 317-155z" fill="#e3f4de" stroke="#e3f4de" stroke-width="1.51"/><path d="M-63 485l8 251 279-280z" fill="#8fbf95" stroke="#8fbf95" stroke-width="1.51"/><path d="M173 865l6 272 308-94z" fill="#6a946c" stroke="#6a946c" stroke-width="1.51"/><path d="M-37-66l-119 278 387 66z" fill="#e5f5e0" stroke="#e5f5e0" stroke-width="1.51"/><path d="M-63 485l-287 6 295 245z" fill="#90be95" stroke="#90be95" stroke-width="1.51"/><path d="M752-444l-621 97 382 44z" fill="#ceebc9" stroke="#ceebc9" stroke-width="1.51"/><path d="M1443 522l172-286-231-36z" fill="#47864e" stroke="#47864e" stroke-width="1.51"/><path d="M1636 810l-32-335-161 47z" fill="#055c27" stroke="#055c27" stroke-width="1.51"/><path d="M1604 475l11-239-172 286z" fill="#2e7b40" stroke="#2e7b40" stroke-width="1.51"/><path d="M-136 1110l315 27-6-272z" fill="#799b7c" stroke="#799b7c" stroke-width="1.51"/><path d="M487 1043l-308 94 601-39z" fill="#528b57" stroke="#528b57" stroke-width="1.51"/><path d="M1345-150l35-247-291 63z" fill="#7d9d81" stroke="#7d9d81" stroke-width="1.51"/><path d="M1089-334l291-63-628-47z" fill="#8bb890" stroke="#8bb890" stroke-width="1.51"/><path d="M1734-311l-354-86-35 247z" fill="#7d9c80" stroke="#7d9c80" stroke-width="1.51"/><path d="M131-347l-226 14 58 267z" fill="#f7fcf5" stroke="#f7fcf5" stroke-width="1.51"/><path d="M-348-88l-10 368 202-68z" fill="#e7f6e2" stroke="#e7f6e2" stroke-width="1.51"/><path d="M-367-436l272 103 226-14z" fill="#f7fcf5" stroke="#f7fcf5" stroke-width="1.51"/><path d="M1345 814l291-4-193-288z" fill="#00451b" stroke="#00451b" stroke-width="1.51"/><path d="M1080 1048l254 79 11-313z" fill="#00471c" stroke="#00471c" stroke-width="1.51"/><path d="M780 1098l554 29-254-79z" fill="#065d28" stroke="#065d28" stroke-width="1.51"/><path d="M179 1137l1155-10-554-29z" fill="#28783d" stroke="#28783d" stroke-width="1.51"/><path d="M-348-88l192 300L-37-66z" fill="#f5fcf2" stroke="#f5fcf2" stroke-width="1.51"/><path d="M-156 212l-194 279 287-6z" fill="#afdcaf" stroke="#afdcaf" stroke-width="1.51"/><path d="M-55 736l-81 374 309-245z" fill="#7d9c80" stroke="#7d9c80" stroke-width="1.51"/><path d="M-358 280l8 211 194-279z" fill="#bfe4bb" stroke="#bfe4bb" stroke-width="1.51"/><path d="M1627 1126l9-316-291 4z" fill="#00441b" stroke="#00441b" stroke-width="1.51"/><path d="M1604 475l128-602-117 363z" fill="#639165" stroke="#639165" stroke-width="1.51"/><path d="M-95-333L-348-88l311 22z" fill="#f7fcf5" stroke="#f7fcf5" stroke-width="1.51"/><path d="M1636 810l96-937-128 602z" fill="#357e43" stroke="#357e43" stroke-width="1.51"/><path d="M1615 236l117-363-348 327z" fill="#729874" stroke="#729874" stroke-width="1.51"/><path d="M-331 845l195 265 81-374z" fill="#7d9c80" stroke="#7d9c80" stroke-width="1.51"/><path d="M-350 491l19 354 276-109z" fill="#81a484" stroke="#81a484" stroke-width="1.51"/><path d="M1732-127l2-184-389 161z" fill="#7d9c80" stroke="#7d9c80" stroke-width="1.51"/><path d="M1636 810l-9 316 105-1253z" fill="#055c27" stroke="#055c27" stroke-width="1.51"/><path d="M1334 1127l293-1-282-312z" fill="#00441b" stroke="#00441b" stroke-width="1.51"/><path d="M179 1137l1448-11-293 1z" fill="#075f29" stroke="#075f29" stroke-width="1.51"/><path d="M-350 491l4 585 15-231zm19 354l-15 231 210 34z" fill="#7d9c80" stroke="#7d9c80" stroke-width="1.51"/><path d="M-358 280l12 796-4-585z" fill="#8ab68e" stroke="#8ab68e" stroke-width="1.51"/><path d="M752-444l-1119 8 498 89z" fill="#edf8e9" stroke="#edf8e9" stroke-width="1.51"/><path d="M-95-333l-272-103 19 348z" fill="#f7fcf5" stroke="#f7fcf5" stroke-width="1.51"/><path d="M-348-88l-19-348 9 716z" fill="#f7fcf5" stroke="#f7fcf5" stroke-width="1.51"/></svg>