<svg height="512pt" viewBox="-26 0 512 512" width="512pt" xmlns="http://www.w3.org/2000/svg"><path d="M406.492 94.195l21.211 21.215-44.57 44.57-21.211-21.214zm0 0" fill="#b4d2d7"/><path d="M53.059 94.2l44.57 44.57-21.215 21.214-44.57-44.57zm0 0" fill="#e1ebf0"/><path d="M395.855 62.352l63.692 63.691-21.211 21.215-63.691-63.692zm0 0" fill="#87a0af"/><path d="M63.691 62.355l21.211 21.211-63.687 63.692L0 126.047zM279.8 15.012h-70.042l20.015 105.25h50.028zm0 0" fill="#b4d2d7"/><path d="M179.746 15.012h50.027v105.25h-50.027zm0 0" fill="#e1ebf0"/><path d="M385.246 136.66c-41.531-41.527-96.742-64.398-155.473-64.398l-20.015 219.87L229.773 512c58.73 0 113.942-22.871 155.473-64.398 41.527-41.528 64.395-96.743 64.395-155.47 0-58.73-22.868-113.945-64.395-155.472zm0 0" fill="#005fe1"/><path d="M74.305 136.66C32.777 178.188 9.906 233.402 9.906 292.133c0 58.726 22.871 113.941 64.399 155.469C115.832 489.129 171.047 512 229.773 512V72.262c-58.726 0-113.941 22.87-155.468 64.398zm0 0" fill="#69b1e9"/><path d="M209.758 272.117l20.015 181.813c89.22 0 161.797-72.582 161.797-161.797zm0 0" fill="#efe2dd"/><path d="M391.57 292.133c0-89.215-72.582-161.797-161.797-161.797l-20.015 161.797zm0 0" fill="#00cc76"/><path d="M309.84 0h-80.067l-10.007 15.012L229.773 30h80.067zm0 0" fill="#87a0af"/><path d="M149.71 0h80.063v30h-80.062zm0 0" fill="#b4d2d7"/><path d="M229.773 130.332c-89.214 0-161.796 72.582-161.796 161.8 0 89.216 72.582 161.798 161.796 161.798zm0 0" fill="#fff5f5"/><path d="M229.773 247.105l-20.015 45.028 20.015 45.023c24.829 0 45.024-20.199 45.024-45.023 0-24.828-20.195-45.028-45.024-45.028zm0 0" fill="#005fe1"/><path d="M184.75 292.133c0 24.824 20.2 45.023 45.023 45.023v-90.05c-24.824 0-45.023 20.199-45.023 45.027zm0 0" fill="#69b1e9"/></svg>