<svg xmlns="http://www.w3.org/2000/svg" viewBox="0 0 152.67 36.77"><defs><style>.cls-1{fill:#fcee21}.cls-2{fill:#ed1c24}</style></defs><g id="Layer_2" data-name="Layer 2"><g id="Layer_1-2" data-name="Layer 1"><path class="cls-1" d="M42.71 2.53q.2-.26.81 0a3.59 3.59 0 011.17.81 4.1 4.1 0 01.88 1.31 1.72 1.72 0 010 1.47q-1.47 1.62-3 3.64T39.47 14q-1.51 2.23-3 4.6t-2.67 4.7q.69.49 1.43.92t1.51.84a.41.41 0 01.32.52 1.88 1.88 0 01-.43.78 4.31 4.31 0 01-.82.74 2.53 2.53 0 01-.85.42l-2.14-1.22-.49-.3q-1.53 3-2.6 5.5a35.86 35.86 0 00-1.56 4.27c-.06.15-.21.14-.46 0a5.25 5.25 0 01-.81-.77 7.64 7.64 0 01-.77-1 1.48 1.48 0 01-.3-.79 26.48 26.48 0 011.3-3.92q.92-2.28 2.22-4.9-1-.52-1.89-1t-1.89-.82q-2.28 2.63-4.77 5a50.32 50.32 0 01-5 4.21 28 28 0 01-4.8 2.9 10.29 10.29 0 01-4.27 1.08q-3.72 0-5.31-1.53t-1-5a10.64 10.64 0 012-4.74 16.54 16.54 0 013.85-3.74 20.49 20.49 0 015-2.54 19.17 19.17 0 015.32-1.1h1.76a21.74 21.74 0 013.49.26 17.36 17.36 0 013 .75q1.5-1.85 2.77-3.63T29.83 11q1-1.58 1.64-2.88A12 12 0 0032.36 6a2.14 2.14 0 00-.3-1.72 1.73 1.73 0 00-1.49-.56 8.11 8.11 0 00-3.82 1 15.31 15.31 0 00-3.49 2.55 21.2 21.2 0 00-2.94 3.55 25.12 25.12 0 00-2.18 4 1.28 1.28 0 01-.48.46 4.39 4.39 0 01-.82.4 7.63 7.63 0 01-1 .29 5.64 5.64 0 01-.88.14 1.41 1.41 0 01-.61-.06c-.14-.06-.18-.17-.1-.35h-.06l.17-.52q.17-.52.32-.87l.3-.69c.1-.23.23-.48.39-.75s.36-.61.61-1A26.54 26.54 0 0118.93 8a27.32 27.32 0 013.69-3.46A21.12 21.12 0 0126.73 2a10.66 10.66 0 014.15-1 4.82 4.82 0 012.12.4 4.26 4.26 0 011.57 1.2 4.59 4.59 0 01.88 1.8 5.82 5.82 0 01.09 2.25 18.15 18.15 0 01-1 2.67 31.32 31.32 0 01-1.64 3.14q-1 1.66-2.21 3.45t-2.64 3.61q.75.4 1.44.85t1.39.94q1.38-2.63 3-5.31T37 10.85q1.56-2.47 3-4.62t2.68-3.68zM5.82 32.3a9.56 9.56 0 003.81-.88 22.54 22.54 0 004.1-2.37 39.44 39.44 0 004.15-3.45q2.08-2 4-4.13a24.56 24.56 0 00-4.27-.35h-2a18 18 0 00-4.37.94A22.06 22.06 0 007.23 24a14.75 14.75 0 00-3.16 2.45 5 5 0 00-1.49 2.67 3.2 3.2 0 00.25 1.44 2.74 2.74 0 00.74 1 2.85 2.85 0 001.05.56 4.24 4.24 0 001.2.18z"/><path class="cls-2" d="M42.62 2.5c.24-.31.54-.21.76-.17a2.93 2.93 0 01.65.27 4.3 4.3 0 011.09.89 4.08 4.08 0 01.74 1.22 2 2 0 01-.06 1.51c-1.06 1.37-2.16 2.7-3.17 4.1s-2 2.84-2.92 4.29l-2.72 4.42-2.51 4.54-.22-.94 1.4.87 1.48.79h-.09a1.42 1.42 0 01.43.24 1.14 1.14 0 01.38.59 1.26 1.26 0 010 .59 2.15 2.15 0 01-.11.34 3.27 3.27 0 01-.67 1 5.25 5.25 0 01-.81.69 3.26 3.26 0 01-1.08.52l-.29.07-.29-.16c-.87-.48-1.75-1-2.62-1.43l1.14-.35-2.22 4.74c-.39.78-.7 1.6-1 2.4S29.26 35.19 29 36v.05a1 1 0 01-1.21.66 1.52 1.52 0 01-.52-.23 4.69 4.69 0 01-.44-.38 5.42 5.42 0 01-.77-.79l-.63-.85a3.16 3.16 0 01-.29-.51 1.75 1.75 0 01-.2-.93v-.07a22.42 22.42 0 01.71-2.38 22.73 22.73 0 01.91-2.25l2-4.37L29 25l-1.81-1-1.85-.85.85-.21-2.89 2.98c-1 1-1.87 2-2.9 2.85a43.47 43.47 0 01-6.52 4.87 23.57 23.57 0 01-3.69 1.79 9.61 9.61 0 01-4.09.63 8.89 8.89 0 01-4-1 3.93 3.93 0 01-1.54-1.53A5.1 5.1 0 010 31.47a11.29 11.29 0 012.53-7.7 18.89 18.89 0 016.4-5.07 20.43 20.43 0 017.9-2.17 20.92 20.92 0 018.2.86l-.77.22 2.1-2.85c.73-.93 1.32-1.95 2-2.92.31-.5.66-1 .95-1.49l.85-1.53a13 13 0 001.34-3.06v.09a1.82 1.82 0 000-.85.51.51 0 00-.35-.32 1.32 1.32 0 00-.38-.05h-.57a6.89 6.89 0 00-1.2.19 10.9 10.9 0 00-4.17 2.3 21.9 21.9 0 00-5.75 8.07l.08-.41v.31l-.11.18a2.6 2.6 0 01-1.34 1.13 5.67 5.67 0 01-1.23.47 7.83 7.83 0 01-1.29.27 2.56 2.56 0 01-.86 0A1.86 1.86 0 0114 17a1.29 1.29 0 01-.59-.45 1.26 1.26 0 01-.23-.85 1.49 1.49 0 01.13-.47l1.44 1.39h-.06l-2.28 1.14.81-2.43a19.41 19.41 0 01.73-2c.13-.31.32-.65.49-1l.52-.88a26.55 26.55 0 012.37-3.38 27.05 27.05 0 016.09-5.54A20.25 20.25 0 0127.16.75 10.69 10.69 0 0131.48 0a5.39 5.39 0 014.09 2.3 6.2 6.2 0 01.89 4.48v.11a16.74 16.74 0 01-1.49 3.6A35.07 35.07 0 0133 13.81c-.71 1-1.35 2.14-2.12 3.14l-2.28 3-.22-1.06 1.47.91 1.39 1-.95.23 2.81-4.81c1-1.58 2-3.14 3-4.7s2.1-3.05 3.14-4.58 2.25-3 3.37-4.42v.06a.34.34 0 01.01-.08zm.19.06v.06c-1 1.54-2.11 3-3.08 4.6s-2 3.12-2.88 4.72-1.87 3.18-2.75 4.8l-2.59 4.88-.33.62-.61-.4-1.38-.9-1.41-.79-.7-.39.47-.67 2.14-3c.73-1 1.32-2.08 2-3.11a33.37 33.37 0 001.73-3.21 15.16 15.16 0 001.29-3.32v.11A4.34 4.34 0 0034 3.4 3.44 3.44 0 0031.34 2c-2.28-.1-4.66 1-6.75 2.41A26.64 26.64 0 0019 9.57a24.38 24.38 0 00-2.2 3.12l-.49.82c-.13.27-.28.5-.4.8a17 17 0 00-.66 1.76l-1.48-1.29h.06l1.44 1.39a.63.63 0 000-.2.89.89 0 00-.17-.59.81.81 0 00-.36-.29.74.74 0 00.26 0 5.79 5.79 0 00.91-.18 3.7 3.7 0 00.87-.32c.12-.06.28-.12.37-.18s.12-.12.06 0l-.11.46v-.25l.08-.19a26.38 26.38 0 012.7-4.72 21.13 21.13 0 013.73-4 15.87 15.87 0 012.3-1.57A9.86 9.86 0 0128.58 3 8.73 8.73 0 0130 2.81h.74a3.11 3.11 0 01.91.16 2.33 2.33 0 011.46 1.44 3.53 3.53 0 01.1 1.73v.09a14.3 14.3 0 01-1.61 3.4l-.92 1.58c-.31.53-.67 1-1 1.5-.7 1-1.33 2-2.1 2.94l-2.24 2.84-.31.39-.46-.17a19.68 19.68 0 00-7.68-1.07 19.41 19.41 0 00-7.59 1.83 17 17 0 00-6.22 4.73 10.64 10.64 0 00-2.46 7.23 3.59 3.59 0 001.78 3.09 8 8 0 003.73.87c2.62.16 5.06-1.12 7.27-2.52a42.44 42.44 0 006.17-5c1-.9 1.83-1.93 2.74-2.9L25 22l.37-.41.48.2 2 .82 1.91.94.68.34-.34.76L28.21 29c-.33.71-.59 1.44-.85 2.17a20.69 20.69 0 00-.64 2.19v-.1c0-.22 0-.09 0 0a1.72 1.72 0 00.19.31l.5.67a4.07 4.07 0 00.55.57c.09.08.2.21.26.25s0 0-.1 0a.73.73 0 00-.48.07.74.74 0 00-.35.39v.07c.25-.89.56-1.74.88-2.58s.66-1.67 1.06-2.47l2.33-4.82.37-.77.77.41c.9.49 1.75 1 2.63 1.51l-.58-.08A2.93 2.93 0 0035.9 26a1.8 1.8 0 00.37-.49v-.09a.33.33 0 000 .14.35.35 0 00.17.24h-.09l-1.53-.86-1.48-1-.56-.37.34-.57 2.7-4.5 2.9-4.36c1-1.43 2.07-2.82 3.13-4.21s2.3-2.65 3.44-4V6a1.45 1.45 0 00.11-1.12 4 4 0 00-1.52-2 2.66 2.66 0 00-.57-.29.58.58 0 00-.5-.03z"/><path class="cls-2" d="M5.82 32.2a7.8 7.8 0 004.51-1.67c1.34-.93 2.55-2 3.85-2.93s2.62-1.9 3.88-3a34.73 34.73 0 003.6-3.37l.18.52a19.23 19.23 0 00-5.47.08 20.72 20.72 0 00-5.13 1.35 28 28 0 00-4.67 2.46 18.7 18.7 0 00-2 1.6 4.74 4.74 0 00-1.4 1.93v-.06a3 3 0 000 1.12 2.43 2.43 0 00.5 1 2.58 2.58 0 001 .68 4.13 4.13 0 001.15.29zm0 .2a3.9 3.9 0 01-2.52-.77A3.48 3.48 0 012 29.11V29a5.29 5.29 0 011.15-3 11 11 0 012.19-2 17 17 0 015.21-2.64 15.68 15.68 0 015.75-.9 38.41 38.41 0 015.65.72l.59.11-.41.4a35.72 35.72 0 00-3.31 3.74A20.38 20.38 0 0115.26 29a14.9 14.9 0 01-4.49 2.42 16.06 16.06 0 01-4.95.98z"/><path class="cls-1" d="M49.52 14.86a17.05 17.05 0 01-4.08 4.33 17 17 0 01-5 2.57 3.89 3.89 0 00.1 1.47 1.07 1.07 0 00.85.84h-.06a2.53 2.53 0 001.34-.09 6.91 6.91 0 001.73-.82 14.16 14.16 0 002-1.54 19.83 19.83 0 002.08-2.25q.55-.69 1.05-1.43l1-1.4a1 1 0 01.71-.4.92.92 0 01.66.19 1 1 0 01.35.61 1.18 1.18 0 01-.27.88l-.72 1q-.92 1.3-2.24 2.87a27.86 27.86 0 01-3 3A9.66 9.66 0 0144 26a10.21 10.21 0 01-1.7.66 7.19 7.19 0 01-1.4.26h-1a3.83 3.83 0 01-3.25-1.3A4.67 4.67 0 0136 22.1a11.31 11.31 0 011.25-3.84 24.58 24.58 0 012.81-4.07 16.26 16.26 0 011.59-1.54 16 16 0 012.08-1.51A12.31 12.31 0 0146.1 10a6.58 6.58 0 012.35-.4 2.22 2.22 0 011.79.79 2.49 2.49 0 01.37 2.06 4.27 4.27 0 01-.36 1.17 7.39 7.39 0 01-.76 1.25zM48 12.49a5.26 5.26 0 00-2 .92 12 12 0 00-1.9 1.7 18.27 18.27 0 00-1.64 2.09 18.91 18.91 0 00-1.24 2.09A15 15 0 0045 17a13.7 13.7 0 003-3.42 1.55 1.55 0 00.25-.46l.13-.4c.03-.21-.09-.3-.38-.23z"/><path class="cls-2" d="M49.59 14.78a1.63 1.63 0 01-.15.45l-.18.33c-.12.22-.25.42-.39.63q-.41.62-.87 1.21a14.35 14.35 0 01-2.08 2.16 16.3 16.3 0 01-5.26 3l.58-.7a3.35 3.35 0 00.08 1.07c0 .18.08.21.1.24a.26.26 0 00.13 0L41 24.85h-.06l.62-1.64a2.1 2.1 0 001-.14 6.11 6.11 0 001.21-.57 16.9 16.9 0 002.33-1.71 18.06 18.06 0 002.1-2.11c.65-.76 1.29-1.56 1.92-2.38a1.51 1.51 0 011-.51 1.28 1.28 0 011.41 1.37 1.75 1.75 0 01-.38.9c-.61.89-1.29 1.74-2 2.61a29.14 29.14 0 01-4.36 5 9.58 9.58 0 01-1.42 1c-.52.25-1 .48-1.58.72a11.87 11.87 0 01-1.74.44 10.28 10.28 0 01-1.76.08 5.22 5.22 0 01-1.89-.44A3.92 3.92 0 0135.82 26a5.7 5.7 0 01-.82-3.74 13 13 0 012.54-6.45 20.12 20.12 0 012.14-2.62A17.46 17.46 0 0142.32 11a13.46 13.46 0 013.07-1.55A7 7 0 0148.94 9a2.67 2.67 0 011.7 1 2.57 2.57 0 01.44 1.86 4.83 4.83 0 01-.51 1.66c-.29.49-.66.92-1 1.36l-.16-.14a.16.16 0 01.18.04zm-.13.15h.11l-.16-.14c.22-.49.47-1 .67-1.43a4.19 4.19 0 00.2-1.49 1.58 1.58 0 00-1.53-1.67 6.24 6.24 0 00-2.75.7 13.35 13.35 0 00-2.59 1.58A18.39 18.39 0 0039.28 17 12.53 12.53 0 0037 22.46a3.8 3.8 0 00.39 2.54 2.62 2.62 0 002.07 1.1 10.82 10.82 0 001.48 0 10.84 10.84 0 001.43-.24l1.44-.47a8.35 8.35 0 001.33-.72 21.33 21.33 0 004.55-4.43 29.08 29.08 0 001.93-2.59 1.12 1.12 0 00.24-.57.66.66 0 00-.21-.45.56.56 0 00-.46-.11.63.63 0 00-.39.29c-.53.88-1.06 1.76-1.65 2.64a19.36 19.36 0 01-2 2.5 12.8 12.8 0 01-2.5 2.1 7.86 7.86 0 01-1.57.76 3.54 3.54 0 01-2 .14l.62-1.64h.06l5.76 3-6.34-1.34a2 2 0 01-1.05-.61 2.2 2.2 0 01-.48-1 4.54 4.54 0 01-.06-1.66l.08-.56.5-.14a18 18 0 005-2.34 19.39 19.39 0 002.24-1.73q.53-.48 1-1l.49-.53.24-.26c.1-.14.21-.14.32-.2z"/><path class="cls-2" d="M48 12.59A3 3 0 0046.17 14a9.49 9.49 0 01-1.54 1.76c-.56.55-1.29 1-1.88 1.57a7.26 7.26 0 00-1.13 2.15l-.62-.62c.62-.41 1.17-.91 1.74-1.32a20.9 20.9 0 001.62-1.36l1.56-1.38c.54-.45 1.19-.86 1.77-1.36l.89-.76-.24.95-.61-.2a1.3 1.3 0 00.29-.28c.08-.12.15-.28.22-.42a.28.28 0 000-.17s-.1.01-.24.03zm0-.19a.42.42 0 01.38 0 .43.43 0 01.13.38c0 .16 0 .3-.07.48a2.06 2.06 0 01-.16.54l-.36.78-.25-1 .64.18a7.74 7.74 0 01-.9 2.26 7.74 7.74 0 01-1.67 1.76 12.8 12.8 0 01-2.06 1.23 9.24 9.24 0 01-2.29.69l-1.48.3.85-1a8.57 8.57 0 001.41-2c.43-.72.72-1.57 1.18-2.33a4.22 4.22 0 012.09-1.6A18.87 18.87 0 0148 12.4z"/><path class="cls-1" d="M58.12 16.1l-1 1.5q-.61 1-1.31 2.12t-1.41 2.45q-.75 1.28-1.39 2.48t-1.07 2.21a6.84 6.84 0 00-.52 1.62.28.28 0 00-.06.14.12.12 0 010 .09h.2a5.5 5.5 0 001.64-.94 14 14 0 001.56-1.47 21.63 21.63 0 001.44-1.76q.69-.94 1.33-1.83a5.9 5.9 0 01.37-.5l.38-.48c.08-.12.21-.14.4-.09a1.9 1.9 0 01.56.29 1.59 1.59 0 01.43.48.46.46 0 010 .48l-1 1.3q-1.18 1.64-2.55 3.33a21.19 21.19 0 01-2.9 3 6.62 6.62 0 01-.66.5 6.47 6.47 0 01-.89.5 7.12 7.12 0 01-1 .39 3.94 3.94 0 01-1.1.16 1.9 1.9 0 01-1-.32 1.85 1.85 0 01-.62-.76 3.14 3.14 0 01-.26-1.1 6.22 6.22 0 01.07-1.37q.06-.32.14-.68a4.67 4.67 0 01.2-.65 27.25 27.25 0 012.41-5.61q1.54-2.73 3.19-5.38l1.56-2.42q.66-1.1 1.31-2.24t1.24-2.24q.59-1.1 1.1-2.12t.85-1.89a1.29 1.29 0 011.08 0 3.21 3.21 0 011.1.71 3.51 3.51 0 01.76 1.2 1.73 1.73 0 010 1.31q-.2.49-.7 1.27t-1.1 1.82l-1.3 2.09-1.28 2z"/><path class="cls-2" d="M58.2 16.15c-.62 1-1.25 2-1.81 3s-1.11 2.08-1.64 3.12-1 2.12-1.45 3.19a14.84 14.84 0 00-1 3.1l-.13.35a.4.4 0 00.09-.25.39.39 0 000-.07 1.18 1.18 0 010 .22 1.1 1.1 0 01-.22.43l-.61-1.41h.2-.28a4.53 4.53 0 001.53-1c.47-.49 1-.89 1.44-1.4s.89-1 1.34-1.57.88-1.12 1.33-1.67l.61 1.18-1.6.01.88-1.08c.2-.24.43-.54.59-.71l.37-.41a1 1 0 01.68-.23 1.3 1.3 0 01.41.09 2.52 2.52 0 011 .66 2 2 0 01.34.52 1 1 0 010 .95l-3.21 3.87a24.73 24.73 0 01-3.48 3.66 6.86 6.86 0 01-1.06.76c-.19.11-.37.23-.57.33l-.61.25a4.09 4.09 0 01-1.31.37 2.51 2.51 0 01-1.49-.25 2.42 2.42 0 01-1-1.18 4.11 4.11 0 01-.54-1.37 6.71 6.71 0 01.06-1.38 8.84 8.84 0 01.3-1.36v.06A26.13 26.13 0 0149.73 21l3.09-5.45 1.65-2.62L56 10.29c.52-.89 1-1.78 1.5-2.68s.92-1.79 1.4-2.68l.19-.35.24-.11a2 2 0 011.47-.07 3.4 3.4 0 011 .53 4.22 4.22 0 011.3 1.66 2.5 2.5 0 010 2.2c-.34.51-.66 1.05-1 1.53-.67 1-1.36 1.93-2 2.91s-1.26 1.94-1.9 2.92zM58 16c.6-1 1.24-2 1.8-3s1.2-2 1.7-3.09c.27-.53.48-1 .72-1.55A1.33 1.33 0 0062 7.17a2.79 2.79 0 00-1-1 2.11 2.11 0 00-.62-.17h-.25l.42-.46a42.81 42.81 0 01-2.7 5.73 58.27 58.27 0 01-3.26 5.36l-3.25 5.25a28.62 28.62 0 00-2.56 5.45 7.59 7.59 0 00-.34 1.05 5.46 5.46 0 00-.16 1.11 2 2 0 00.63 1.76 2.41 2.41 0 002 0A4.43 4.43 0 0052 30.9a6.1 6.1 0 001-.64 17.83 17.83 0 003.37-3.59c1-1.35 1.92-2.7 2.82-4.12v.05c-.06.07 0 .17-.05.12a1.06 1.06 0 00-.16-.18 1.29 1.29 0 00-.5-.26.39.39 0 00.28-.1c.06-.06.06-.07 0 0l-.07.1-.14.19c-.2.28-.3.45-.45.67L57.49 22l1.43-.08-.82 1.26c-.39.6-.78 1.21-1.19 1.81s-.9 1.18-1.37 1.76-1.08 1.07-1.63 1.59a6 6 0 01-2.12 1.22l-.16.05h-.32l-.61-1.41a.62.62 0 00-.18.32.57.57 0 000 .17v-.12a1.43 1.43 0 01.19-.48l-.13.34a11.67 11.67 0 011.58-3.42c.59-1 1.28-2 1.93-3l2-2.93C56.77 18 57.39 17 58 16z"/><path class="cls-1" d="M65.88 16.1l-1 1.5q-.61 1-1.31 2.12t-1.46 2.45q-.75 1.28-1.39 2.48t-1.07 2.21a6.84 6.84 0 00-.52 1.62.28.28 0 00-.06.14.12.12 0 010 .09h.2a5.5 5.5 0 001.64-.94 14 14 0 001.56-1.47 21.63 21.63 0 001.44-1.76q.69-.94 1.33-1.83a5.9 5.9 0 01.37-.5l.38-.48c.08-.12.21-.14.4-.09a1.9 1.9 0 01.56.29 1.59 1.59 0 01.43.48.46.46 0 010 .48l-1 1.3q-1.18 1.64-2.55 3.33a21.19 21.19 0 01-2.9 3 6.62 6.62 0 01-.66.5 6.47 6.47 0 01-.89.5 7.12 7.12 0 01-1 .39 3.94 3.94 0 01-1.1.16 1.9 1.9 0 01-1-.32 1.85 1.85 0 01-.62-.76 3.14 3.14 0 01-.26-1.1 6.22 6.22 0 01.07-1.37q.06-.32.14-.68a4.67 4.67 0 01.2-.65 27.25 27.25 0 012.41-5.61q1.54-2.73 3.19-5.38L63 13.74q.66-1.1 1.31-2.24t1.24-2.24q.59-1.1 1.1-2.12t.85-1.89a1.29 1.29 0 011.08 0A3.21 3.21 0 0169.7 6a3.51 3.51 0 01.76 1.2 1.73 1.73 0 010 1.31q-.2.43-.68 1.24t-1.1 1.82l-1.3 2.09-1.28 2z"/><path class="cls-2" d="M66 16.15c-.62 1-1.25 2-1.81 3S63 21.26 62.51 22.3s-1 2.12-1.45 3.19a14.84 14.84 0 00-1 3.1l-.13.35a.39.39 0 00.09-.25.39.39 0 000-.07 1.18 1.18 0 010 .22 1.1 1.1 0 01-.22.43l-.61-1.41h.2-.28a4.53 4.53 0 001.53-1c.47-.49 1-.89 1.44-1.4s.89-1 1.34-1.57.88-1.12 1.33-1.67l.61 1.18-1.51-.08.88-1.08c.2-.24.43-.54.59-.71l.37-.41a1 1 0 01.68-.23 1.3 1.3 0 01.41.09 2.52 2.52 0 011 .66 2 2 0 01.34.52 1 1 0 010 .95l-3.21 3.87a24.73 24.73 0 01-3.48 3.66 6.86 6.86 0 01-1.06.76c-.19.11-.37.23-.57.33l-.61.25a4.09 4.09 0 01-1.31.37 2.51 2.51 0 01-1.49-.25 2.42 2.42 0 01-1-1.18 4.11 4.11 0 01-.32-1.42 6.71 6.71 0 01.06-1.38 8.84 8.84 0 01.3-1.36v.06A26.13 26.13 0 0157.49 21l3.09-5.45 1.65-2.62 1.55-2.64c.52-.89 1-1.78 1.5-2.68s.92-1.79 1.4-2.68l.19-.35.24-.11a2 2 0 011.47-.07 3.39 3.39 0 011 .53 4.22 4.22 0 011.3 1.66 2.5 2.5 0 010 2.2c-.34.51-.66 1.05-1 1.53-.67 1-1.36 1.93-2 2.91S66.6 15.17 66 16.15zm-.2-.15c.6-1 1.24-2 1.8-3s1.13-2 1.66-3.09c.27-.53.48-1 .72-1.55a1.33 1.33 0 00-.25-1.19 2.79 2.79 0 00-1-1 2.11 2.11 0 00-.59-.17h-.25l.42-.46a42.82 42.82 0 01-2.7 5.73 58.28 58.28 0 01-3.26 5.36l-3.25 5.25a28.62 28.62 0 00-2.56 5.45 7.59 7.59 0 00-.34 1.05 5.46 5.46 0 00-.2 1.21 2 2 0 00.63 1.76 2.41 2.41 0 002 0 4.43 4.43 0 001.09-.46 6.1 6.1 0 001-.64 17.83 17.83 0 003.37-3.59c1-1.35 1.92-2.7 2.82-4.12v.05c-.06.07 0 .17-.05.12a1.06 1.06 0 00-.16-.18 1.29 1.29 0 00-.5-.26.39.39 0 00.28-.1c.06-.06.06-.07 0 0l-.07.1-.14.19c-.2.28-.3.45-.45.67L65.25 22l1.43-.08-.82 1.26c-.39.6-.78 1.21-1.19 1.81s-.9 1.18-1.37 1.76-1.08 1.07-1.63 1.59a6 6 0 01-2.12 1.22l-.16.05h-.29l-.61-1.41a.62.62 0 00-.18.32.57.57 0 000 .17v-.12a1.43 1.43 0 01.19-.57l-.13.34a11.67 11.67 0 011.58-3.42c.59-1 1.28-2 1.93-3l2-2.93C64.53 18 65.15 17 65.8 16z"/><path class="cls-1" d="M75.75 9.56a2.41 2.41 0 011.69 1.13 4.31 4.31 0 01.59 2 2.54 2.54 0 01.4 1 6.7 6.7 0 01.12 1.3 2.51 2.51 0 00-.07.46 5 5 0 01-.07.55 11.24 11.24 0 01-.73 2.52 16.91 16.91 0 01-1.3 2.48 17.48 17.48 0 01-1.7 2.28 13.92 13.92 0 01-2 1.88 9.86 9.86 0 01-2.12 1.25 5.32 5.32 0 01-2.09.46 4.28 4.28 0 01-3.09-1.24 5.29 5.29 0 01-1.27-3.75v-.68q0-.36.09-.76a9.86 9.86 0 01.8-2.56A16.77 16.77 0 0168.49 13a15.07 15.07 0 012.32-1.89 10.69 10.69 0 012.47-1.21 6.34 6.34 0 012.47-.34zm-2 7.62a.51.51 0 01-.3-.41 3.18 3.18 0 01-.07-.71 5 5 0 01.07-.82q.07-.43.13-.75a1.93 1.93 0 01.36-.74 4.14 4.14 0 01.59-.63 6.28 6.28 0 01.62-.48 5.1 5.1 0 01.48-.29.89.89 0 00-.41-.06 4 4 0 00-1.47.5 8.4 8.4 0 00-1.59 1.11 12.16 12.16 0 00-1.44 1.6 16.14 16.14 0 00-1.2 1.83 14.51 14.51 0 00-.89 1.89 8.1 8.1 0 00-.5 1.78 3.36 3.36 0 00.09 1.83 1.28 1.28 0 001.24.79 2.86 2.86 0 001.44-.36 6.87 6.87 0 001.47-1.05 12.29 12.29 0 001.4-1.54A15.73 15.73 0 0075 18.8a15.26 15.26 0 00.92-1.92 7.93 7.93 0 00.49-1.76l.06-.14a1 1 0 00-.53.19 3.53 3.53 0 00-.58.45 4.45 4.45 0 00-.49.55 2.16 2.16 0 00-.3.52z"/><path class="cls-2" d="M75.76 9.46a2.79 2.79 0 011.83 1.15 5.27 5.27 0 01.82 2.07l-.07-.2a2.76 2.76 0 01.39.58 2.71 2.71 0 01.24.64c.09.42.18.84.26 1.28v.74c0 .3 0 .5-.06.73a8.14 8.14 0 01-.29 1.41 11.25 11.25 0 01-1.15 2.56 16.57 16.57 0 01-3.73 4.1 12.2 12.2 0 01-4.78 2.68 5.23 5.23 0 01-2.89-.2A4.47 4.47 0 0164 25a8.39 8.39 0 01-.5-5.85 11.15 11.15 0 011.07-2.67 14.54 14.54 0 011.57-2.35 12.56 12.56 0 014.35-3.48 10.75 10.75 0 015.27-1.19zm0 .2a6.57 6.57 0 00-4.66 1.94 25.32 25.32 0 00-3.34 3.8 18 18 0 00-2.29 4.34 8.31 8.31 0 00-.41 2.26 6.19 6.19 0 00.38 2.25 3.32 3.32 0 001.4 1.62 4 4 0 002.29.51A7.25 7.25 0 0073.49 24a17.9 17.9 0 002.71-4.35c.35-.77.7-1.54 1-2.31.14-.39.26-.77.38-1.17l.33-1.33v-.91a1.84 1.84 0 000-.51 1.92 1.92 0 00-.16-.46l-.08-.15v-.05a3.55 3.55 0 00-.35-1.94 2.1 2.1 0 00-1.59-1.16z"/><path class="cls-2" d="M73.74 17.27a.77.77 0 01-.6-.66 2.9 2.9 0 01-.17-.79 6.85 6.85 0 010-.8 7.59 7.59 0 01.05-.81 2.69 2.69 0 01.38-.89c.17-.22.34-.46.54-.68a6.67 6.67 0 011.31-1.06l-.07 1.48a.58.58 0 00.19.08h-.05a8.21 8.21 0 00-2.5 1.25 9.66 9.66 0 00-2.32 2.17 9.28 9.28 0 00-1.55 2.86 5.79 5.79 0 00-.32 1.58 2.92 2.92 0 00.18 1.39c.09.21.17.25.25.29a1.12 1.12 0 00.37.05 2.15 2.15 0 001.07-.36 8.91 8.91 0 002.13-2c.34-.39.58-.86.9-1.26a8.92 8.92 0 00.86-1.31l.78-1.37a8.5 8.5 0 00.55-1.43v-.16l.07-.14.63.93s-.12 0-.27.06l-.5.27c-.15.12-.3.25-.47.37s-.25.27-.39.42l-.13.15c-.29.18-.66.29-.92.37zm0-.2l.7-.64-.13.15a6.64 6.64 0 01.29-.71c.13-.21.27-.41.41-.61s.35-.36.54-.54a1.55 1.55 0 01.93-.42l.91-.09-.27 1v.15-.16a7.74 7.74 0 01-.33 1.8c-.19.57-.43 1.1-.65 1.66a8.6 8.6 0 01-.85 1.56 10.72 10.72 0 01-1 1.47 8.92 8.92 0 01-2.89 2.33 3.64 3.64 0 01-2.14.38 2.21 2.21 0 01-1.17-.54 1.92 1.92 0 01-.59-1.13 4.19 4.19 0 01.17-1.92 11.71 11.71 0 01.6-1.65c.54-1 1-2.05 1.57-3 1-2 2.39-4.3 5.3-4.73h.57a1.14 1.14 0 01.38.15l1.3.77-1.39.77a6.49 6.49 0 00-1.05.66c-.14.14-.3.26-.46.4a1.44 1.44 0 00-.3.4c-.07.13-.14.43-.22.63s-.11.43-.18.66a3.61 3.61 0 00-.11.67.8.8 0 00.04.54z"/><path class="cls-1" d="M88.73 16.87q-.09.32-.58.36a3.24 3.24 0 01-1.07-.1 5.05 5.05 0 01-1.08-.4 1.12 1.12 0 01-.59-.52 16.34 16.34 0 011.2-4.13 14.9 14.9 0 011.93-3.2A14.27 14.27 0 0191 6.48a20.17 20.17 0 012.67-1.75 19.84 19.84 0 012.63-1.21q1.31-.48 2.41-.79a21.92 21.92 0 014-.79 37.2 37.2 0 013.94-.22q1.67 0 3.42.1t3.27.23l2.74.19q1.36.08 2.6.08a20.14 20.14 0 002.86-.19 9 9 0 002.39-.68q.23-.09.2.46a7.63 7.63 0 01-.2 1.29 11 11 0 01-.43 1.42 1.78 1.78 0 01-.49.83 12.7 12.7 0 01-2.7.7 19.83 19.83 0 01-2.84.2 30.9 30.9 0 01-3.26-.17l-3.35-.37-3.69-.39a36.7 36.7 0 00-3.69-.19q-1.15 0-2.29.1t-2.35.33a13.37 13.37 0 00-3.13 1.05 10.73 10.73 0 00-2.88 2 13.23 13.23 0 00-2.39 3.3 18.71 18.71 0 00-1.71 4.86zm15-11.45q.23-.23.84 0a3.8 3.8 0 011.15.79 4 4 0 01.87 1.27 1.68 1.68 0 010 1.46q-1.76 1.93-3.55 4.18t-3.46 4.63q-1.67 2.38-3.2 4.8t-2.77 4.7q-1.24 2.28-2.15 4.33A28.45 28.45 0 0090 35.27q-.06.23-.43-.06a5.37 5.37 0 01-.79-.78 7.43 7.43 0 01-.74-1 1.48 1.48 0 01-.29-.79 22.13 22.13 0 011.33-4q1-2.22 2.26-4.67t2.9-5q1.59-2.57 3.23-5t3.25-4.64q1.63-2.21 2.98-3.92z"/><path class="cls-2" d="M88.83 16.89a.56.56 0 01-.39.39 1.67 1.67 0 01-.5.07 3.63 3.63 0 01-1-.12 5.83 5.83 0 01-.91-.32 1.45 1.45 0 01-.81-.65v-.08a17.78 17.78 0 011.81-6.07 14.1 14.1 0 014.22-4.92 17.81 17.81 0 015.81-2.83 20.13 20.13 0 016.3-1.05h3.16l3.13.19c2.08.15 4.16.33 6.23.41 1 0 2.07.05 3.09 0l1.52-.16a8.4 8.4 0 001.51-.27 8.23 8.23 0 001.37-.48l.17-.08h.09l.16-.05a.79.79 0 01.3 0 .78.78 0 01.52.36 1 1 0 01.12.29 1.72 1.72 0 010 .33 7.87 7.87 0 01-.07.88 8.35 8.35 0 01-.12.84l-.22.8a8.28 8.28 0 01-.24.81 3.76 3.76 0 01-.21.45 1.57 1.57 0 01-.51.58h-.11a13.55 13.55 0 01-2.58.77c-.88.13-1.75.17-2.63.26l-.66.05h-3.25l-1.26-.12-5-.5c-.84-.1-1.65-.12-2.47-.18s-1.64-.16-2.44-.11a29.18 29.18 0 00-4.79.43 11.5 11.5 0 00-4.34 1.86 11.76 11.76 0 00-3.24 3.64 16.48 16.48 0 00-1.76 4.58zm-.19 0a17.35 17.35 0 014.48-9.1A11.79 11.79 0 0197.7 5a16.46 16.46 0 012.6-.56 17.93 17.93 0 012.61-.25c.88-.07 1.73 0 2.6 0s1.74.05 2.57.16c1.68.18 3.36.36 5 .59l1.25.16 1.22.09 1.22.09h1.21c.8-.05 1.61-.07 2.4-.14a11.84 11.84 0 002.29-.54l-.15.07c-.12.1 0 .05 0 0a2.14 2.14 0 00.14-.25c.1-.19.16-.45.24-.67a7.74 7.74 0 00.39-1.38c0-.22.12-.49.13-.67s0-.07 0-.06a.42.42 0 000 .1.56.56 0 00.37.25.5.5 0 00.2 0h.07-.09l-.19.07a9.44 9.44 0 01-1.61.41 10 10 0 01-1.62.11h-1.6a14.81 14.81 0 01-1.58-.08l-1.57-.09c-4.14-.35-8.32-.78-12.38-.09A21.92 21.92 0 0097.63 4a22.32 22.32 0 00-5.37 2.6 15 15 0 00-4.32 4 14.18 14.18 0 00-2.37 5.59v-.08c.06.19.36.38.61.51A4.46 4.46 0 0087 17a3.41 3.41 0 00.9.14c.33-.01.67-.05.73-.3z"/><path class="cls-2" d="M103.63 5.35a.72.72 0 01.74-.08 3.21 3.21 0 01.63.29 5.08 5.08 0 011.07.87 4.19 4.19 0 01.76 1.18 2 2 0 010 1.51v.07l-2.53 3.56c-.42.59-.85 1.17-1.24 1.78s-.83 1.18-1.25 1.78c-.86 1.16-1.75 2.3-2.58 3.49s-1.78 2.3-2.62 3.48-1.63 2.4-2.39 3.64-1.33 2.58-2 3.89a22.5 22.5 0 00-1.46 4.06l-.12.51v.06a.73.73 0 01-.12.26.69.69 0 01-.37.26.75.75 0 01-.33 0 1.31 1.31 0 01-.49-.21c-.33-.27-.62-.53-.94-.81s-.51-.61-.76-.93a2.83 2.83 0 01-.35-.53 1.68 1.68 0 01-.24-.95v-.07a20 20 0 011.17-3.95l1.66-3.67a30.5 30.5 0 011.87-3.55c.67-1.16 1.32-2.32 2.07-3.43a57.64 57.64 0 014.78-6.38c1.65-2.06 3.41-4.03 5.04-6.13zm.15.13c-.79 1.06-1.55 2.13-2.28 3.23s-1.36 2.27-2 3.41c-1.33 2.28-2.55 4.61-4 6.83-.69 1.12-1.27 2.28-2 3.4s-1.35 2.24-1.91 3.41l-1.77 3.47a25 25 0 00-1.32 3.56v-.08.1a2 2 0 00.22.4c.18.27.34.57.53.83l.63.71s.11.06 0 0a.47.47 0 00-.19 0 .5.5 0 00-.26.18.36.36 0 00-.07.14V35l.2-.53a31.87 31.87 0 011.88-4c.71-1.29 1.31-2.63 2-3.91s1.39-2.58 2-3.9a53.42 53.42 0 014.68-7.47c.46-.58.9-1.17 1.37-1.73l.71-.85c.25-.27.52-.53.78-.79l3.13-3.11-.05.08a1.41 1.41 0 00.17-1.09 3.56 3.56 0 00-.58-1.12 3.44 3.44 0 00-1-.86 3 3 0 00-.58-.28c.04-.04-.19-.06-.29.04z"/><path class="cls-1" d="M115 25.75q-.55.75-1.44 1.82a24.53 24.53 0 01-2 2.08 14.51 14.51 0 01-2.18 1.72 3.94 3.94 0 01-2.09.71 3.11 3.11 0 01-1.15-.22 2 2 0 01-.89-.68 2.78 2.78 0 01-.48-1.2 4.78 4.78 0 01.07-1.74 15.06 15.06 0 01.5-1.7 18.47 18.47 0 01.75-1.76q.45-.92 1-2t1.33-2.44a9 9 0 00.56-1.08 4.12 4.12 0 00.27-.82l-1.39 1.18q-1.13.92-2.09 1.88t-2 2q-1 1.9-1.9 3.82a24.57 24.57 0 00-1.38 3.91q-.12.32-.61.29a2.88 2.88 0 01-1-.27 3.76 3.76 0 01-1-.62.94.94 0 01-.39-.75 22.26 22.26 0 011.08-3.55q.71-1.79 1.63-3.58t2-3.58q1.07-1.79 2.14-3.55l1.15-1.85q.66-1.1 1.31-2.24t1.24-2.24q.59-1.1 1.1-2.12t.85-1.89a1.29 1.29 0 011.08 0 3.21 3.21 0 011.13.76 3.51 3.51 0 01.8 1.26 1.73 1.73 0 010 1.31q-.2.43-.68 1.24t-1.08 1.8q-.61 1-1.28 2.08t-1.31 2.06l-.49.75a12.76 12.76 0 012-1.15 6 6 0 012-.55 1.17 1.17 0 01.79.36 3.51 3.51 0 01.68.88 3.24 3.24 0 01.38 1.13 2 2 0 01-.12 1.07q-.75 1.47-1.47 2.76l-1.24 2.21-.85 1.49q-.39.68-.69 1.34c-.2.44-.39.89-.55 1.36s-.31 1-.45 1.5a.68.68 0 01.2-.17 12.34 12.34 0 002.14-1.47 17.49 17.49 0 002.65-2.83l.71-.89.65-.87.55-.84c.08-.1.22-.12.43-.07a1.59 1.59 0 01.59.27 1.56 1.56 0 01.43.48.38.38 0 010 .48v-.06l-2 2.77z"/><path class="cls-2" d="M115.06 25.81a30.62 30.62 0 01-2.1 2.55 20.87 20.87 0 01-2.32 2.37 6.38 6.38 0 01-3 1.67 3.45 3.45 0 01-1.83-.23 2.58 2.58 0 01-1.35-1.42 5.39 5.39 0 010-3.59l.21-.84.29-.8c.21-.53.4-1.08.65-1.57l.72-1.51.78-1.47c.25-.48.54-1 .75-1.44l.34-.66c.06-.2.13-.4.21-.6l1.46.84-2.81 2.4-.69.6-.66.65-1.32 1.24.11-.15-2 3.66a23.79 23.79 0 00-1.5 3.86.86.86 0 01-.69.54 1.85 1.85 0 01-.61 0 3.53 3.53 0 01-1-.35 4.12 4.12 0 01-.9-.56 1.36 1.36 0 01-.55-1.09 23.26 23.26 0 011-3.35l1.42-3.19c.45-1.07 1.07-2.06 1.59-3.09s1.09-2 1.66-3c1.12-2 2.31-4 3.36-6s2.13-4.07 2.94-6.14l.12-.3.31-.16a2.11 2.11 0 011.52-.13 3.71 3.71 0 011.09.51 4.45 4.45 0 011.49 1.72 3.07 3.07 0 01.34 1.24 2.62 2.62 0 01-.07.71 2.68 2.68 0 01-.11.35c0 .11-.08.16-.12.24-.3.57-.62 1.18-.92 1.69-.61 1.06-1.24 2.1-1.87 3.15s-1.27 2.09-1.94 3.1l-1.5-1.45a14 14 0 012-1.2 7.11 7.11 0 012.44-.7h.1a2.29 2.29 0 011.63.76 4.64 4.64 0 01.77 1.06 4.27 4.27 0 01.44 1.26 3.27 3.27 0 010 1.47 2.5 2.5 0 01-.15.41l-.12.23-.25.45-.5.91c-.33.61-.66 1.22-1 1.79l-2.07 3.46a17.22 17.22 0 00-1.57 3.52l-1.28-.61a2.1 2.1 0 01.43-.42l.37 1.2-2.8-.14 2.49-1.09a11.35 11.35 0 002-1.19 13.37 13.37 0 001.77-1.54c.56-.56 1.07-1.18 1.61-1.79a17.25 17.25 0 001.48-1.9.68.68 0 01.75-.1 1.79 1.79 0 01.55.3 1.73 1.73 0 01.41.47.56.56 0 010 .7l-.58.56.36-.71v-.06l.23.14-2 2.75zm-.15-.13l1.93-2.79.23.14v.06l-.23-.15c.08-.1.06-.21 0-.35a1.41 1.41 0 00-.36-.36A1.44 1.44 0 00116 22c-.16-.05-.35 0-.33 0-.42.7-.87 1.38-1.34 2s-.93 1.33-1.46 2a15.18 15.18 0 01-1.72 1.82 12.42 12.42 0 01-2 1.54l-.29-1.24.37 1.2v-.07l-1.23-.49a16.12 16.12 0 011.36-4c.61-1.26 1.26-2.4 1.88-3.6l.92-1.77.46-.88.23-.44.11-.22v-.07a1.89 1.89 0 00-.26-1.18 2.52 2.52 0 00-.43-.57c-.17-.17-.22-.13-.13-.13h.1a5 5 0 00-1.72.49 11.82 11.82 0 00-1.72 1l-4.55 3.19 3-4.65c1.32-2 2.65-4 3.9-6.09.34-.53.58-1 .87-1.48l.09-.16v-.08a.72.72 0 000-.19 1.17 1.17 0 00-.14-.5 2.61 2.61 0 00-.84-1 2.11 2.11 0 00-.54-.28.4.4 0 00-.25 0l.42-.46a58.43 58.43 0 01-3.34 6.18c-1.22 2-2.55 3.88-3.78 5.82a64.35 64.35 0 00-3.49 5.93c-.47 1-1 2.07-1.42 3.12a21.2 21.2 0 00-.82 3.26c0 .14.12.33.35.51a3.39 3.39 0 00.73.45 2.76 2.76 0 00.8.24 1 1 0 00.34 0c.08 0 0 0 0 0a24.82 24.82 0 011.29-4.1l1.76-3.88v-.06l.08-.09 1.27-1.41a14.68 14.68 0 011.34-1.35l1.4-1.3 1.41-1.22 2.4-2.06-.94 2.91-.31 1c-.13.28-.27.54-.41.8-.29.55-.54 1-.81 1.46l-1.58 2.85c-.28.47-.47 1-.7 1.43l-.34.71-.26.74a4.3 4.3 0 00-.34 2.86 1.61 1.61 0 00.77 1 2.67 2.67 0 001.38.3 5.81 5.81 0 002.81-1.29 19.09 19.09 0 002.4-2.22 30.55 30.55 0 002.16-2.6z"/><path class="cls-1" d="M126.52 14.86a17.05 17.05 0 01-4.08 4.33 17 17 0 01-5 2.57 3.89 3.89 0 00.1 1.47 1.07 1.07 0 00.85.84h-.06a2.53 2.53 0 001.34-.09 6.91 6.91 0 001.73-.82 14.16 14.16 0 002-1.54 19.83 19.83 0 002.08-2.25q.55-.69 1.05-1.43l1-1.4a1 1 0 01.71-.4.92.92 0 01.66.19 1 1 0 01.35.61 1.18 1.18 0 01-.27.88l-.72 1q-.92 1.3-2.24 2.87a27.86 27.86 0 01-3 3A9.66 9.66 0 01121 26a10.21 10.21 0 01-1.7.66 7.19 7.19 0 01-1.4.26h-1a3.83 3.83 0 01-3.25-1.3 4.67 4.67 0 01-.65-3.52 11.31 11.31 0 011.25-3.84 24.58 24.58 0 012.81-4.07 16.26 16.26 0 011.59-1.54 16 16 0 012.08-1.51A12.31 12.31 0 01123.1 10a6.58 6.58 0 012.35-.4 2.22 2.22 0 011.79.79 2.49 2.49 0 01.37 2.06 4.27 4.27 0 01-.36 1.17 7.39 7.39 0 01-.76 1.25zM125 12.49a5.26 5.26 0 00-2 .92 12 12 0 00-1.9 1.7 18.27 18.27 0 00-1.64 2.09 18.91 18.91 0 00-1.24 2.09A15 15 0 00122 17a13.7 13.7 0 003-3.42 1.55 1.55 0 00.25-.46l.13-.4c.03-.21-.09-.3-.38-.23z"/><path class="cls-2" d="M126.59 14.78a1.63 1.63 0 01-.15.45l-.18.33c-.12.22-.25.42-.39.63q-.41.62-.87 1.21a14.35 14.35 0 01-2.08 2.16 16.3 16.3 0 01-5.26 3l.58-.7a3.35 3.35 0 00.08 1.07c0 .18.08.21.1.24a.26.26 0 00.13 0l-.55 1.68h-.06l.62-1.64a2.1 2.1 0 001-.14 6.11 6.11 0 001.21-.57 16.9 16.9 0 002.33-1.71 18.06 18.06 0 002.1-2.11c.65-.76 1.29-1.56 1.92-2.38a1.51 1.51 0 011-.51 1.28 1.28 0 011.41 1.37 1.75 1.75 0 01-.38.9c-.61.89-1.29 1.74-2 2.61a29.14 29.14 0 01-4.36 5 9.58 9.58 0 01-1.42 1c-.52.25-1 .48-1.58.72a11.86 11.86 0 01-1.74.44 10.28 10.28 0 01-1.76.08 5.22 5.22 0 01-1.89-.44 3.92 3.92 0 01-1.6-1.34 5.7 5.7 0 01-.84-3.75 13 13 0 012.54-6.45 20.12 20.12 0 012.14-2.62 17.46 17.46 0 012.68-2.31 13.46 13.46 0 013.07-1.55 7 7 0 013.54-.4 2.67 2.67 0 011.7 1 2.57 2.57 0 01.44 1.86 4.83 4.83 0 01-.51 1.66c-.29.49-.66.92-1 1.36l-.16-.14a.16.16 0 01.19-.01zm-.13.15h.11l-.16-.14c.22-.49.47-1 .67-1.43a4.2 4.2 0 00.2-1.49 1.58 1.58 0 00-1.53-1.67 6.24 6.24 0 00-2.79.66 13.35 13.35 0 00-2.59 1.58 18.39 18.39 0 00-4.09 4.56 12.53 12.53 0 00-2.28 5.46 3.8 3.8 0 00.39 2.49 2.62 2.62 0 002.07 1.1 7.92 7.92 0 002.91-.22l1.44-.47a8.35 8.35 0 001.33-.72 21.33 21.33 0 004.55-4.43 29.09 29.09 0 001.93-2.59 1.12 1.12 0 00.24-.57.66.66 0 00-.21-.45.56.56 0 00-.46-.11.63.63 0 00-.39.29c-.53.88-1.06 1.76-1.65 2.64a19.36 19.36 0 01-2 2.5 12.8 12.8 0 01-2.5 2.1 7.85 7.85 0 01-1.57.76 3.54 3.54 0 01-2 .14l.62-1.64h.06l5.76 3-6.34-1.34a2 2 0 01-1.05-.61 2.2 2.2 0 01-.48-1 4.54 4.54 0 01-.06-1.66l.08-.56.5-.14a18 18 0 005-2.34 19.38 19.38 0 002.24-1.73q.53-.48 1-1l.49-.53.24-.26c.1-.11.21-.11.32-.17z"/><path class="cls-2" d="M125 12.59a3 3 0 00-1.83 1.41 9.49 9.49 0 01-1.54 1.76c-.56.55-1.29 1-1.88 1.57a7.26 7.26 0 00-1.13 2.15l-.61-.66c.62-.41 1.17-.91 1.74-1.32a20.9 20.9 0 001.62-1.36l1.56-1.38c.54-.45 1.19-.86 1.77-1.36l.89-.76-.24.95-.61-.2a1.3 1.3 0 00.29-.28c.08-.12.15-.28.22-.42a.28.28 0 000-.17s-.11.05-.25.07zm0-.19a.42.42 0 01.38 0 .43.43 0 01.13.38c0 .16 0 .3-.07.48a2.07 2.07 0 01-.16.54l-.36.78-.25-1 .64.18a7.74 7.74 0 01-.9 2.26 7.74 7.74 0 01-1.67 1.76 12.8 12.8 0 01-2.06 1.23 9.24 9.24 0 01-2.29.69l-1.46.29.85-1a8.57 8.57 0 001.38-1.99c.43-.72.72-1.57 1.18-2.33a4.22 4.22 0 012.09-1.6 18.87 18.87 0 012.57-.67z"/><path class="cls-1" d="M137.69 22.38q-.81 1-1.79 2a17.88 17.88 0 01-2.08 1.86 11 11 0 01-2.28 1.36 5.14 5.14 0 01-2.34.46 2.28 2.28 0 01-1.12-.32 1.93 1.93 0 01-.71-.76 2.91 2.91 0 01-.3-1.08 4.72 4.72 0 01.06-1.27 8.81 8.81 0 01.58-1.79 10.58 10.58 0 01.88-1.59q.5-.75 1.08-1.47t1.21-1.47l.69-.81.84-1a2.4 2.4 0 01.59-.5 4.45 4.45 0 011.23-.49l-.66.13-.46.1-.75.17a3.1 3.1 0 01-.87.06h-.29q-.78 1-1.47 1.92l-1.3 1.77c-.08.12-.21.14-.4.09a1.59 1.59 0 01-.55-.3 1.83 1.83 0 01-.42-.49.38.38 0 010-.48q.84-1.1 1.41-1.92l1-1.46a1.77 1.77 0 01-.09-1.15 3.73 3.73 0 01.64-1.59l1.15-1.62.56-.84a9.81 9.81 0 00.62-1.13l.81.48a3.21 3.21 0 01.71.58 2.12 2.12 0 01.45.77 2.06 2.06 0 01.06 1c0 .17-.09.36-.14.56a3.32 3.32 0 01-.32.71l-1.21 1.3q-.14.17.14 0c.19-.09.47-.23.84-.45L135 13l1.36-.87q.66-.43 1.17-.81a7 7 0 00.71-.58.84.84 0 01.43.17 4.57 4.57 0 01.5.39l.43.4a1.48 1.48 0 01.22.25 1.53 1.53 0 010 1.17 6.65 6.65 0 01-.76 1.49 18.73 18.73 0 01-1.3 1.72q-.76.91-1.6 1.86-.49.52-1 1l-.92 1.07-.78.92c-.29.35-.57.7-.84 1.05a8.88 8.88 0 00-.62 1.07 2.83 2.83 0 00-.35.87c0 .12.06.17.29.17a1.72 1.72 0 00.84-.22 6.85 6.85 0 001.13-.69 12.89 12.89 0 001.24-1.05 11.15 11.15 0 001.18-1.33q.75-.92 1.41-1.82t1.07-1.53a.39.39 0 01.43 0 1.74 1.74 0 011 .87.44.44 0 010 .5v-.06l-1 1.44-1.36 1.93z"/><path class="cls-2" d="M137.75 22.46c-.6.81-1.17 1.59-1.8 2.36a15.59 15.59 0 01-2.18 2.12 9.56 9.56 0 01-2.77 1.55 5.62 5.62 0 01-1.66.3 3 3 0 01-1.84-.48 2.92 2.92 0 01-1.14-1.61 4.87 4.87 0 01-.16-1.77 7.57 7.57 0 01.37-1.63 7.08 7.08 0 01.66-1.47 22.9 22.9 0 013.7-4.83l1.54-1.74-.06 2.28-1.48-.54q.43-.48.87-.95a3 3 0 01.52-.52 3.24 3.24 0 01.6-.37 6.09 6.09 0 011.18-.38l.33 1.34-.78.12-.72.13-.39.07a3 3 0 01-.47 0h-.81l.42-.2-1.51 1.76c-.49.59-1 1.21-1.43 1.81l-.67.84v-1l.64.19a.62.62 0 01-.54.26 1.12 1.12 0 01-.39-.1 2.12 2.12 0 01-.56-.36 2.16 2.16 0 01-.42-.5.9.9 0 01-.14-.4.67.67 0 01.17-.48l.56-.6v.84l-.56-.19c.84-1.1 1.64-2.23 2.44-3.38v.33a2 2 0 01-.18-1.05 5.39 5.39 0 01.18-1 5.92 5.92 0 01.89-1.68c.32-.5.67-1 1-1.5a14.6 14.6 0 00.8-1.52l.24-.51.52.29c.39.22.73.36 1.18.66a3.07 3.07 0 011.06 1.2 2.71 2.71 0 01.21 1.67 5.8 5.8 0 01-.49 1.43l-.09.1-.69.78-.34.39-.09.1a.41.41 0 00.07-.1.67.67 0 00.05-.13.75.75 0 000-.13.82.82 0 000-.29.84.84 0 00-.23-.4.82.82 0 00-.59-.23.62.62 0 00-.18 0l.83-.49.87-.56c.58-.37 1.17-.76 1.73-1.15l.82-.59c.26-.2.46-.39.7-.57l.37-.29h.32a1.57 1.57 0 01.68.16 2.11 2.11 0 01.35.21l.52.39.44.4a2.52 2.52 0 01.31.33 1.42 1.42 0 01.27.45 2.62 2.62 0 010 1.72 6.7 6.7 0 01-.51 1.16 15.28 15.28 0 01-1.29 1.93c-.45.62-.93 1.14-1.4 1.69s-.95 1.08-1.43 1.59-.94 1-1.4 1.57-.9 1.07-1.33 1.59l-.54.78a2.4 2.4 0 00-.33.64v.15a.84.84 0 00-.11-.73.76.76 0 00-.41-.31h-.09l2-.3-1.9.3a.65.65 0 00.24-.06 3.79 3.79 0 00.51-.28l.53-.3a6.45 6.45 0 00.52-.39 7.71 7.71 0 001-.84l.91-.94.59 1.19-1.55-.08 1-1.13L137 19c.44-.53.84-1.07 1.26-1.61l.07-.08a.85.85 0 01.7-.22 1.37 1.37 0 01.43.14 2.23 2.23 0 01.6.44 2.11 2.11 0 01.42.6 1.14 1.14 0 01.11.46.8.8 0 01-.21.55L138 21.75l1.74-2.9v-.06l.69.42-2.64 3.2h-.06zm-.12-.16h.07c.69-1.2 1.42-2.38 2.15-3.55l.69.42v.06l-.67-.45s0 .06-.08-.07a1.28 1.28 0 00-.28-.32 1.24 1.24 0 00-.36-.21h-.12s.1 0 .16-.06l.07-.09c-.38.6-.75 1.21-1.14 1.8l-1.22 1.73-.58-1.21 1.65-.08-1.06 1.27-1 1.15a9.15 9.15 0 01-1.07 1c-.19.16-.36.34-.57.49l-.66.44a2.91 2.91 0 01-1.81.64h.09a1.52 1.52 0 01-.48-.06 1 1 0 01-.7-1.34v.15a3.78 3.78 0 01.51-1.3l.63-1c.44-.6.9-1.18 1.35-1.73.89-1.12 1.9-2.21 2.8-3.25a30.24 30.24 0 002.49-3.19 4.71 4.71 0 00.38-.78.72.72 0 00.06-.38l-.06-.06-.34-.33-.33-.26c-.08-.1-.22-.08.07 0l.69-.29c-.31.25-.64.53-.95.74l-.91.61c-.61.39-1.2.75-1.82 1.12s-1.24.71-2 1l-.2.08a1 1 0 01-.31.06.91.91 0 01-.31 0 .87.87 0 01-.33-.2.88.88 0 01-.23-.42.89.89 0 010-.31.93.93 0 010-.15.92.92 0 01.07-.16 1.13 1.13 0 01.15-.21v-.05l.09-.09.38-.38.75-.76-.11.15a4.31 4.31 0 00.39-1 1.27 1.27 0 000-.82 1.73 1.73 0 00-.55-.74c-.24-.2-.66-.45-1-.67L133 9a17.92 17.92 0 01-1 1.58c-.36.5-.73 1-1.09 1.44a4.67 4.67 0 00-.89 1.41 4.78 4.78 0 00-.19.8 1.32 1.32 0 00.08.7l.08.18-.11.15-2.47 3.37-.55.75v-1l.55.2v.15a1.52 1.52 0 00.3.35 1.22 1.22 0 00.38.23h.1l.64.19-.63-.21 2.63-3.82.13-.2h1.01l.29-.06.36-.1.78-.21.73-.18.33 1.34a4.71 4.71 0 00-.87.37 1.76 1.76 0 00-.3.23 1.36 1.36 0 00-.29.34q-.39.51-.8 1l-1.42 1.73-.06-2.27 1.48.55a32.87 32.87 0 00-3.39 4.6 5.56 5.56 0 00-.59 1.2 6 6 0 00-.32 1.24 2.09 2.09 0 00.51 2 2.9 2.9 0 002.23.17 9.68 9.68 0 002.5-1.14 19.81 19.81 0 002.31-1.73z"/><path class="cls-1" d="M149.69 14.86a17.05 17.05 0 01-4.08 4.33 17 17 0 01-5 2.57 3.89 3.89 0 00.1 1.47 1.07 1.07 0 00.85.84h-.06a2.53 2.53 0 001.34-.09 6.91 6.91 0 001.73-.82 14.16 14.16 0 002-1.54 19.83 19.83 0 002.08-2.25q.55-.69 1.05-1.43l1-1.4a1 1 0 01.71-.4.92.92 0 01.66.19 1 1 0 01.35.61 1.18 1.18 0 01-.27.88l-.72 1q-.92 1.3-2.24 2.87a27.86 27.86 0 01-3 3 9.66 9.66 0 01-1.9 1.25 10.21 10.21 0 01-1.7.66 7.19 7.19 0 01-1.4.26h-1a3.83 3.83 0 01-3.25-1.3 4.67 4.67 0 01-.71-3.55 11.31 11.31 0 011.25-3.84 24.58 24.58 0 012.81-4.07 16.26 16.26 0 011.59-1.54 16 16 0 012.08-1.51 12.31 12.31 0 012.31-1.05 6.58 6.58 0 012.35-.4 2.22 2.22 0 011.79.79 2.49 2.49 0 01.37 2.06 4.27 4.27 0 01-.36 1.17 7.39 7.39 0 01-.76 1.25zm-1.5-2.37a5.26 5.26 0 00-2 .92 12 12 0 00-1.9 1.7 18.27 18.27 0 00-1.64 2.09 18.91 18.91 0 00-1.24 2.09 15 15 0 003.75-2.29 13.7 13.7 0 003-3.42 1.55 1.55 0 00.25-.46l.13-.4c.03-.21-.08-.3-.35-.23z"/><path class="cls-2" d="M149.75 14.78a1.63 1.63 0 01-.15.45l-.18.33c-.12.22-.25.42-.39.63q-.41.62-.87 1.21a14.35 14.35 0 01-2.08 2.16 16.3 16.3 0 01-5.26 3l.58-.7a3.35 3.35 0 00.08 1.07c0 .18.08.21.1.24a.26.26 0 00.13 0l-.58 1.65h-.06l.62-1.64a2.1 2.1 0 001-.14 6.11 6.11 0 001.21-.57 16.9 16.9 0 002.33-1.71 18.06 18.06 0 002.1-2.11c.65-.76 1.29-1.56 1.92-2.38a1.51 1.51 0 011-.51 1.28 1.28 0 011.41 1.37 1.75 1.75 0 01-.38.9c-.61.89-1.29 1.74-2 2.61a29.14 29.14 0 01-4.36 5 9.58 9.58 0 01-1.42 1c-.52.25-1 .48-1.58.72a11.87 11.87 0 01-1.74.44 10.28 10.28 0 01-1.76.08 5.22 5.22 0 01-1.89-.44A3.92 3.92 0 01136 26a5.7 5.7 0 01-.84-3.75 13 13 0 012.54-6.45 20.12 20.12 0 012.14-2.62 17.46 17.46 0 012.65-2.18 13.46 13.46 0 013.07-1.55A7 7 0 01149.1 9a2.67 2.67 0 011.7 1 2.57 2.57 0 01.44 1.86 4.83 4.83 0 01-.51 1.66c-.29.49-.66.92-1 1.36l-.16-.14a.16.16 0 01.18.04zm-.13.15h.11l-.16-.14c.22-.49.47-1 .67-1.43a4.2 4.2 0 00.2-1.49 1.58 1.58 0 00-1.53-1.67 6.24 6.24 0 00-2.79.66 13.35 13.35 0 00-2.59 1.58 18.39 18.39 0 00-4.08 4.56 12.53 12.53 0 00-2.28 5.45 3.8 3.8 0 00.39 2.49 2.62 2.62 0 002.07 1.1 7.92 7.92 0 002.91-.22l1.44-.47a8.35 8.35 0 001.33-.72 21.33 21.33 0 004.55-4.43 29.09 29.09 0 001.93-2.59 1.12 1.12 0 00.24-.57.66.66 0 00-.21-.45.56.56 0 00-.46-.11.63.63 0 00-.39.29c-.53.88-1.06 1.76-1.65 2.64a19.36 19.36 0 01-2 2.5 12.8 12.8 0 01-2.5 2.1 7.86 7.86 0 01-1.57.76 3.54 3.54 0 01-2 .14l.62-1.64h.06l5.76 3-6.34-1.34a2 2 0 01-1.05-.61 2.2 2.2 0 01-.48-1 4.53 4.53 0 01-.06-1.66l.08-.56.5-.14a18 18 0 005-2.34 19.39 19.39 0 002.24-1.73q.53-.48 1-1l.49-.53.24-.26c.09-.1.21-.1.32-.16z"/><path class="cls-2" d="M148.21 12.59a3 3 0 00-1.88 1.41 9.49 9.49 0 01-1.54 1.76c-.56.55-1.29 1-1.88 1.57a7.26 7.26 0 00-1.13 2.15l-.61-.66c.62-.41 1.17-.91 1.74-1.32a20.9 20.9 0 001.62-1.36l1.56-1.38c.54-.45 1.19-.86 1.77-1.36l.89-.76-.24.95-.61-.2a1.3 1.3 0 00.29-.28c.08-.12.15-.28.22-.42a.28.28 0 000-.17s-.11.05-.2.07zm0-.19a.42.42 0 01.38 0 .43.43 0 01.13.38c0 .16 0 .3-.07.48a2.06 2.06 0 01-.16.54l-.36.78-.25-1 .64.18a7.74 7.74 0 01-.9 2.26 7.74 7.74 0 01-1.67 1.76 12.8 12.8 0 01-2.06 1.23 9.24 9.24 0 01-2.29.69l-1.46.29.85-1a8.57 8.57 0 001.34-1.99c.43-.72.72-1.57 1.18-2.33a4.22 4.22 0 012.09-1.6 18.87 18.87 0 012.57-.67z"/></g></g></svg>