<svg xmlns="http://www.w3.org/2000/svg" viewBox="0 0 107.55 31.03"><g data-name="Layer 2"><path d="M4.12 1.74v11.53H15.8V1.74H19v27.55h-3.2V16.37H4.12v12.92H1V1.74zM26 16.19c.07 4.87 2.8 6.87 5.95 6.87a10.19 10.19 0 004.8-1l.54 2.58a12.56 12.56 0 01-5.77 1.23c-5.34 0-8.53-4-8.53-10S26.1 5.19 31.15 5.19c5.66 0 7.17 5.68 7.17 9.32a15.64 15.64 0 01-.11 1.68zm9.25-2.58c0-2.29-.82-5.85-4.37-5.85-3.19 0-4.59 3.35-4.84 5.85zM42.23 1h3.15v29h-3.15zm8.46 0h3.15v29h-3.15zm24.16 14.35c0 7.32-4.44 10.51-8.64 10.51-4.69 0-8.31-3.92-8.31-10.18 0-6.62 3.8-10.51 8.6-10.51 4.98 0 8.35 4.13 8.35 10.18zm-13.76.2c0 4.33 2.19 7.61 5.27 7.61s5.27-3.23 5.27-7.69c0-3.35-1.47-7.6-5.2-7.6s-5.34 3.92-5.34 7.68zM85.83 27a2.28 2.28 0 012.12-2.54c1.29 0 2.11 1.06 2.11 2.54a2.15 2.15 0 11-4.23 0zm.9-5.85l-.5-19.62h3.44l-.5 19.62zM94.08 27a2.28 2.28 0 012.11-2.54c1.29 0 2.11 1.06 2.11 2.54a2.15 2.15 0 11-4.23 0zm.9-5.85l-.5-19.62h3.44l-.5 19.62zm7.34 5.85a2.28 2.28 0 012.11-2.54c1.29 0 2.11 1.06 2.11 2.54a2.15 2.15 0 11-4.23 0zm.9-5.85l-.5-19.62h3.44l-.5 19.62z" fill="#ff0" stroke="#333" stroke-miterlimit="10" stroke-width="2" data-name="Layer 1"/></g></svg>