<svg height="512pt" viewBox="0 0 512 511" width="512pt" xmlns="http://www.w3.org/2000/svg"><path d="M352.164 160.152c-25.707-25.66-59.848-39.78-96.16-39.78H256l-19.98 326.151 98.902-19.976v-20.16c0-21.727 8.176-42.918 23.012-59.672a135.939 135.939 0 0034.195-90.215c0-36.41-14.191-70.629-39.965-96.348zm0 0" fill="#ffd422"/><path d="M256 120.371h-.262c-75.02.145-135.965 61.293-135.867 136.317.047 33.292 12.242 65.324 34.344 90.195 14.742 16.59 22.863 37.57 22.863 59.078v20.586L256 446.523zM240.793.5h29.945v79.902h-29.945zM140.762 27.426l39.953 69.195-25.934 14.973-39.949-69.196zm-99.098 88.308l69.195 39.95-14.972 25.933-69.196-39.953zM0 241.762h79.902v29.945H0zm96.133 90.019l14.972 25.934-69.195 39.953-14.972-25.934zm0 0" fill="#fff68e"/><path d="M416.094 331.371l69.195 39.953-14.973 25.93-69.195-39.953zm16.004-90.078H512v29.941h-79.902zm38.004-125.973l14.968 25.93-69.195 39.953-14.973-25.933zm-99.278-88.129l25.93 14.973-39.95 69.195-25.933-14.972zm0 0" fill="#ffd422"/><path d="M300.703 256.734c0-24.777-20.156-44.937-44.937-44.937s-44.942 20.16-44.942 44.937c0 19.532 12.531 36.184 29.969 42.368v147.421h29.945V299.102c17.438-6.18 29.965-22.836 29.965-42.368zm-44.937 14.996c-8.27 0-14.996-6.726-14.996-14.996s6.726-14.996 14.996-14.996 14.996 6.727 14.996 14.996-6.727 14.996-14.996 14.996zm0 0" fill="#ff9f22"/><path d="M256 511.543h78.926v-84.996H256l-19.977 42.5zm0 0" fill="#b4d2d7"/><path d="M177.074 426.547H256v84.996h-78.926zm0 0" fill="#e1ebf0"/></svg>