<svg height="512pt" viewBox="0 0 512 512.004" width="512pt" xmlns="http://www.w3.org/2000/svg"><path d="M458.7 512.004L312.694 366l53.301-53.3L512 458.702zm0 0" fill="#87a0af"/><path d="M221.535 0L201.52 220.273l20.015 222.797c122.156 0 221.535-99.379 221.535-221.535C443.07 99.383 343.691 0 221.535 0zm0 0" fill="#b4d2d7"/><path d="M.004 221.535c0 122.156 99.379 221.535 221.531 221.535V0C99.383 0 .004 99.383.004 221.535zm0 0" fill="#e1ebf0"/><path d="M221.535 52.625L201.52 220.273l20.015 170.172c93.14 0 168.91-75.77 168.91-168.91 0-93.137-75.77-168.91-168.91-168.91zm0 0" fill="#212cbb"/><path d="M52.625 221.535c0 93.14 75.773 168.91 168.914 168.91V52.625c-93.14 0-168.914 75.773-168.914 168.91zm0 0" fill="#005fe1"/><path d="M305.508 157.074l-83.973 83.969-10.008 30.96 10.008 11.466L326.72 178.285zm0 0" fill="#efe2dd"/><path d="M198.578 264.004l-61.012-61.016-21.21 21.215 82.222 82.227 22.957-22.961v-42.426zm0 0" fill="#fff5f5"/></svg>