<svg height="512pt" viewBox="-74 0 512 512" width="512pt" xmlns="http://www.w3.org/2000/svg"><path d="M181.926 0l-10.008 15 10.008 15c50.77 0 92.078 41.309 92.078 92.078V246.11h30V122.08C304.004 54.765 249.238 0 181.926 0zm0 0" fill="#b4d2d7"/><path d="M59.848 122.078V246.11h30V122.08c0-50.77 41.304-92.079 92.078-92.079V0C114.609 0 59.848 54.766 59.848 122.078zm0 0" fill="#e1ebf0"/><path d="M181.926 148.148l-20.68 178.649L181.926 512c100.472 0 181.926-81.45 181.926-181.926 0-100.472-81.454-181.926-181.926-181.926zm0 0" fill="#ff9f22"/><path d="M0 330.074C0 430.551 81.45 512 181.926 512V148.148C81.449 148.148 0 229.602 0 330.074zm0 0" fill="#ffd422"/><path d="M181.926 197.754l-20.68 132.32 20.68 132.324c72.96 0 132.32-59.359 132.32-132.324 0-72.96-59.36-132.32-132.32-132.32zm0 0" fill="#b4d2d7"/><path d="M49.602 330.074c0 72.965 59.359 132.324 132.324 132.324V197.754c-72.965 0-132.324 59.36-132.324 132.32zm0 0" fill="#e1ebf0"/><path d="M166.926 335.102h30v56.445h-30zm0 0" fill="#03232e"/><path d="M181.926 268.602l-20.016 41.996 20.016 41.996c23.191 0 41.996-18.801 41.996-41.996 0-23.192-18.805-41.996-41.996-41.996zm0 0" fill="#03232e"/><path d="M139.93 310.598c0 23.195 18.8 41.996 41.996 41.996v-83.992c-23.196 0-41.996 18.804-41.996 41.996zm0 0" fill="#07485e"/></svg>