<svg height="512pt" viewBox="-29 0 511 512" width="512pt" xmlns="http://www.w3.org/2000/svg"><path d="M366.168 0H227.254l-20.02 235.668L227.254 512c136.426-51.363 226.75-181.883 226.75-327.656V87.836C410.75 77.286 376.719 43.254 366.168 0zm0 0" fill="#ff4a4a"/><path d="M88.336 0C77.786 43.254 43.754 77.285.5 87.836v96.508C.5 330.117 90.824 460.637 227.254 512V0zm0 0" fill="#ff9f22"/><path d="M352.66 101.344a184.098 184.098 0 01-28.879-37.477h-96.527l-20.02 147.801 20.02 230.988c44.996-21.433 83.398-54.074 112.016-95.422 33.277-48.086 50.867-104.414 50.867-162.89v-54.121a183.96 183.96 0 01-37.477-28.88zm0 0" fill="#b4d2d7"/><path d="M130.723 63.867c-7.926 13.61-17.618 26.215-28.88 37.477s-23.866 20.953-37.476 28.879v54.12c0 58.477 17.59 114.805 50.867 162.891 28.618 41.348 67.02 73.989 112.02 95.422V63.867zm0 0" fill="#e1ebf0"/><path d="M212.254 251.875h30v71.547h-30zm0 0" fill="#03232e"/><path d="M227.254 167.668l-20.02 49.602 20.02 49.605c27.348 0 49.601-22.254 49.601-49.605 0-27.348-22.253-49.602-49.601-49.602zm0 0" fill="#03232e"/><path d="M177.648 217.27c0 27.351 22.254 49.601 49.606 49.601v-99.207c-27.352.004-49.606 22.254-49.606 49.606zm0 0" fill="#07485e"/></svg>