<svg height="512pt" viewBox="0 0 512 512" width="512pt" xmlns="http://www.w3.org/2000/svg"><path d="M512 409.602l-190.684-20.016L341.336 512H512zm0 0" fill="#d10050"/><path d="M150.652 389.586L170.668 512h170.668V389.586zm0 0" fill="#ff4a4a"/><path d="M0 409.602V512h170.668V389.586zm0 0" fill="#ff9f22"/><path d="M512 307.2l-105.348-20.016 20.016 122.418H512zm0 0" fill="#ff4a4a"/><path d="M235.984 287.184L256 409.602h170.668V287.184zm0 0" fill="#ff9f22"/><path d="M65.316 287.184l20.02 122.418H256V287.184zm0 0" fill="#d10050"/><path d="M0 307.2v102.402h85.336V287.184zm0 0" fill="#ff4a4a"/><path d="M512 204.8l-190.684-20.015L341.332 307.2H512zm0 0" fill="#d10050"/><path d="M150.652 184.785L170.668 307.2h170.664V184.785zm0 0" fill="#ff4a4a"/><path d="M0 204.8v102.4h170.668V184.784zm0 0" fill="#ff9f22"/><path d="M512 102.398L406.652 82.383 426.668 204.8H512zm0 0" fill="#ff4a4a"/><path d="M235.984 82.383L256 204.8h170.668V82.383zm0 0" fill="#ff9f22"/><path d="M65.316 82.383L85.336 204.8H256V82.383zm0 0" fill="#d10050"/><path d="M0 102.398v102.403h85.336V82.383zm0 0" fill="#ff4a4a"/><path d="M512 0H341.336l-20.02 51.2 20.02 51.198H512zm0 0" fill="#d10050"/><path d="M170.668 0l-20.016 51.2 20.016 51.198h170.668V0zm0 0" fill="#ff4a4a"/><path d="M0 0h170.668v102.398H0zm0 0" fill="#ff9f22"/></svg>