<svg xmlns="http://www.w3.org/2000/svg" viewBox="0 0 17.35 22.84"><defs><style>.cls-1{fill:#fff}</style></defs><g id="Layer_2" data-name="Layer 2"><g id="Layer_1-2" data-name="Layer 1"><path class="cls-1" d="M13.6 18.55a2.15 2.15 0 1 0 2.15 2.15 2.15 2.15 0 0 0-2.15-2.15m-7.39 0a2.15 2.15 0 1 0 2.15 2.15 2.15 2.15 0 0 0-2.15-2.15M16.27 8.28H8.36v2.18h6.53L13.8 15H6.32l-.94-7.44c-.11-.86 0-2.19-.83-2.71L1.1 2.65 0 4.54l3.07 2 1.2 9.61a1.12 1.12 0 0 0 1.09 1.05h9.3a1.1 1.1 0 0 0 1.05-.8l1.6-6.74a1.11 1.11 0 0 0-1.05-1.38"/><path class="cls-1" d="M13.91 2H11.9V0H9.8v2h-2v2.11h2v2h2.1v-2h2.01V2z"/></g></g></svg>