<svg width="543" height="501" xmlns="http://www.w3.org/2000/svg"><path d="M169.001 39.928H19.999q-.491 0-.981.024-.491.024-.979.072-.489.048-.974.12-.486.073-.968.168-.481.096-.957.215-.477.12-.946.262-.47.143-.932.308-.463.165-.916.353-.454.188-.898.398-.443.21-.876.442-.433.23-.855.483-.421.253-.829.525-.408.273-.802.566-.395.292-.774.604-.38.311-.743.64-.364.33-.711.678-.348.347-.677.71-.33.364-.641.744-.312.38-.604.774-.293.394-.566.802-.272.408-.525.83-.252.42-.484.854-.231.433-.441.876-.21.444-.398.898-.188.453-.353.916-.165.462-.308.932-.142.47-.262.946-.119.476-.215.957-.095.482-.168.968-.072.485-.12.974-.048.488-.072.979-.024.49-.024.981v93.074q0 .491.024.981.024.491.072.979.048.489.12.974.073.486.168.968.096.481.215.957.12.477.262.946.143.47.308.932.165.463.353.916.188.454.398.898.21.443.441.876.232.433.484.854.253.422.525.83.273.408.566.802.292.395.604.774.311.38.641.743.329.364.677.711.347.348.711.677.363.33.743.641.379.312.774.604.394.293.802.566.408.272.83.525.421.252.854.484.433.231.876.441.444.21.898.398.453.188.916.353.462.165.932.308.469.142.946.262.476.119.957.215.482.095.968.168.485.072.974.12.488.048.979.072.49.024.981.024h149.002q.49 0 .981-.024.49-.024.98-.072.488-.048.974-.12.485-.073.967-.168.481-.096.957-.215.477-.12.946-.262.47-.143.932-.308.463-.165.916-.353.454-.188.898-.398.443-.21.876-.441.433-.232.855-.484.42-.253.829-.525.408-.273.802-.566.395-.292.774-.604.38-.311.744-.641.363-.329.71-.677.348-.347.677-.711.33-.363.641-.743.312-.379.604-.774.293-.394.566-.802.272-.408.525-.83.252-.421.484-.854.231-.433.44-.876.21-.444.399-.898.188-.453.353-.916.165-.462.308-.932.142-.469.262-.946.119-.476.215-.957.096-.482.168-.968.072-.485.12-.974.048-.488.072-.979.024-.49.024-.981V59.927q0-.49-.024-.981-.024-.49-.072-.98-.048-.488-.12-.973-.072-.486-.168-.968-.096-.481-.215-.957-.12-.477-.262-.946-.143-.47-.308-.932-.165-.463-.353-.916-.188-.454-.398-.898-.21-.443-.441-.876-.232-.433-.484-.855-.253-.42-.525-.829-.273-.408-.566-.802-.292-.395-.604-.774-.311-.38-.64-.743-.33-.364-.678-.711-.347-.348-.71-.677-.364-.33-.744-.641-.38-.312-.774-.604-.394-.293-.802-.566-.408-.272-.83-.525-.42-.252-.854-.484-.433-.23-.876-.44-.444-.21-.898-.399-.453-.188-.916-.353-.462-.165-.932-.308-.47-.142-.946-.262-.476-.119-.957-.215-.482-.095-.968-.168-.485-.072-.974-.12-.488-.048-.979-.072-.49-.024-.981-.024z" fill="#F2F6FB"/><path d="M141.284 92.486c-8.853 0-16.03-7.176-16.03-16.028 0-8.853 7.177-16.029 16.03-16.029 8.853 0 16.03 7.176 16.03 16.029 0 8.852-7.177 16.028-16.03 16.028zm-46.97 0c-8.853 0-16.03-7.176-16.03-16.028 0-8.853 7.177-16.029 16.03-16.029 8.853 0 16.03 7.176 16.03 16.029 0 8.852-7.177 16.028-16.03 16.028zm-46.971 0c-8.852 0-16.03-7.176-16.03-16.028 0-8.853 7.178-16.029 16.03-16.029 8.853 0 16.03 7.176 16.03 16.029 0 8.852-7.177 16.028-16.03 16.028zm93.941 54.421c-8.853 0-16.03-7.26-16.03-16.214 0-8.955 7.177-16.215 16.03-16.215 8.853 0 16.03 7.26 16.03 16.215s-7.177 16.214-16.03 16.214zm-46.97 0c-8.853 0-16.03-7.26-16.03-16.214 0-8.955 7.177-16.215 16.03-16.215 8.853 0 16.03 7.26 16.03 16.215s-7.177 16.214-16.03 16.214zm-46.784 0c-8.956 0-16.216-7.26-16.216-16.214 0-8.955 7.26-16.215 16.216-16.215 8.955 0 16.216 7.26 16.216 16.215s-7.26 16.214-16.216 16.214z" fill="#D8DEED"/><path d="M137.184 72.544c0 2.161 1.835 3.914 4.1 3.914 2.265 0 4.1-1.753 4.1-3.914 0-2.162-1.835-3.914-4.1-3.914-2.265 0-4.1 1.752-4.1 3.914zm11.556 12.86c0-3.912-3.338-7.083-7.456-7.083-4.117 0-7.455 3.171-7.455 7.083h14.91zm-58.527-12.86c0 2.161 1.836 3.914 4.101 3.914 2.265 0 4.1-1.753 4.1-3.914 0-2.162-1.835-3.914-4.1-3.914-2.265 0-4.1 1.752-4.1 3.914zm11.557 12.86c0-3.912-3.255-7.083-7.27-7.083-4.014 0-7.269 3.171-7.269 7.083h14.539zm-58.527-12.86c0 2.161 1.836 3.914 4.1 3.914 2.265 0 4.1-1.753 4.1-3.914 0-2.162-1.835-3.914-4.1-3.914-2.264 0-4.1 1.752-4.1 3.914zm11.556 12.86c0-3.912-3.255-7.083-7.27-7.083-4.014 0-7.269 3.171-7.269 7.083H54.8zm82.385 41.002a4.1 4.1 0 108.2 0 4.1 4.1 0 00-8.2 0zm11.556 13.046a7.455 7.455 0 00-7.456-7.455 7.455 7.455 0 00-7.455 7.455h14.91zm-58.527-13.046a4.1 4.1 0 108.201 0 4.1 4.1 0 00-8.2 0zm11.557 13.046c0-4.117-3.255-7.455-7.27-7.455-4.014 0-7.269 3.338-7.269 7.455h14.539zm-58.527-13.046a4.1 4.1 0 108.201 0 4.1 4.1 0 00-8.2 0zM54.8 139.452c0-4.117-3.254-7.455-7.269-7.455-4.015 0-7.27 3.338-7.27 7.455H54.8z" fill="#F2F6FB" fill-rule="evenodd"/><path d="M153.96 96.586h-25.35q-.165 0-.33.016-.163.016-.325.049-.161.032-.319.08-.158.047-.31.11t-.297.141q-.146.078-.283.17-.137.09-.264.195-.127.105-.244.221-.116.117-.22.244-.105.128-.197.265-.092.137-.17.282-.077.145-.14.297-.063.153-.11.31-.049.158-.08.32-.033.161-.049.325t-.016.329v.002q0 .165.016.329t.048.325q.032.162.08.32.048.157.111.31.063.152.14.297.078.145.17.282.092.137.196.264.105.128.221.244.117.117.244.221.127.105.264.196.137.092.283.17.145.077.297.14.152.063.31.111t.32.08q.16.032.325.048.164.017.329.017h25.351q.165 0 .329-.017.164-.016.325-.048.162-.032.32-.08.157-.048.31-.11.152-.064.297-.141.145-.078.282-.17.137-.091.265-.196.127-.104.244-.22.116-.117.22-.245.105-.127.197-.264.091-.137.169-.282.078-.145.14-.298.064-.152.112-.31.047-.157.08-.319.032-.161.048-.325t.016-.33v-.001q0-.165-.016-.329t-.048-.325q-.033-.162-.08-.32-.048-.157-.111-.31-.063-.152-.141-.297-.078-.145-.17-.282-.09-.137-.195-.265-.105-.127-.221-.244-.117-.116-.244-.22-.128-.105-.265-.197-.137-.091-.282-.169-.145-.078-.297-.14-.153-.064-.31-.111-.158-.048-.32-.08-.161-.033-.325-.049t-.329-.016zm-46.97 0H81.638q-.165 0-.329.016t-.325.049q-.162.032-.32.08-.157.047-.31.11-.152.063-.297.141-.145.078-.282.17-.137.09-.265.195-.127.105-.244.221-.116.117-.22.244-.105.128-.197.265-.091.137-.169.282-.078.145-.14.297-.064.153-.112.31-.047.158-.08.32-.032.161-.048.325t-.016.329v.002q0 .165.016.329t.049.325q.032.162.08.32.047.157.11.31.063.152.141.297.078.145.17.282.09.137.195.264.105.128.221.244.117.117.244.221.128.105.265.196.137.092.282.17.145.077.297.14.153.063.31.111.158.048.32.08.161.032.325.048.164.017.329.017h25.352q.164 0 .328-.017.164-.016.326-.048.161-.032.32-.08.157-.048.309-.11.152-.064.297-.141.146-.078.283-.17.137-.091.264-.196.127-.104.244-.22.116-.117.221-.245.105-.127.196-.264.092-.137.17-.282.077-.145.14-.298.063-.152.11-.31.049-.157.08-.319.033-.161.05-.325.015-.164.015-.33v-.001q0-.165-.016-.329t-.048-.325q-.032-.162-.08-.32-.048-.157-.111-.31-.063-.152-.14-.297-.078-.145-.17-.282-.091-.137-.196-.265-.105-.127-.221-.244-.117-.116-.244-.22-.127-.105-.264-.197-.137-.091-.283-.169-.145-.078-.297-.14-.152-.064-.31-.111-.158-.048-.32-.08-.16-.033-.325-.049-.164-.016-.328-.016zm-46.598 0H34.667q-.164 0-.328.016t-.326.049q-.161.032-.32.08-.157.047-.309.11t-.297.141q-.146.078-.283.17-.137.09-.264.195-.128.105-.244.221-.117.117-.221.244-.105.128-.196.265-.092.137-.17.282-.077.145-.14.297-.063.153-.11.31-.049.158-.08.32-.033.161-.05.325-.015.164-.015.329v.002q0 .165.016.329t.048.325q.032.162.08.32.048.157.11.31.064.152.142.297.077.145.169.282.091.137.196.264.104.128.22.244.117.117.245.221.127.105.264.196.137.092.282.17.146.077.298.14.152.063.31.111.157.048.32.08.16.032.325.048.164.017.328.017h25.725q.165 0 .329-.017.164-.016.325-.048.162-.032.32-.08.157-.048.31-.11.151-.064.297-.141.145-.078.282-.17.137-.091.264-.196.128-.104.244-.22.117-.117.221-.245.105-.127.196-.264.092-.137.17-.282.077-.145.14-.298.063-.152.111-.31.048-.157.08-.319.032-.161.048-.325.017-.164.017-.33v-.001q0-.165-.017-.329-.016-.164-.048-.325-.032-.162-.08-.32-.048-.157-.11-.31-.064-.152-.141-.297-.078-.145-.17-.282-.091-.137-.196-.265-.104-.127-.22-.244-.117-.116-.245-.22-.127-.105-.264-.197-.137-.091-.282-.169-.146-.078-.298-.14-.152-.064-.31-.111-.157-.048-.319-.08-.161-.033-.325-.049t-.33-.016zm93.568 54.049h-25.35q-.165 0-.33.016-.163.016-.325.048-.161.033-.319.08-.158.048-.31.111t-.297.14q-.146.079-.283.17-.137.092-.264.196-.127.105-.244.221-.116.117-.22.244-.105.127-.197.264-.092.137-.17.283-.077.145-.14.297-.063.152-.11.31-.049.158-.08.32-.033.161-.049.325t-.016.329v.002q0 .164.016.328t.048.326q.032.162.08.32.048.157.111.31.063.151.14.297.078.145.17.282.092.137.196.264.105.128.221.244.117.117.244.221.127.105.264.196.137.092.283.17.145.077.297.14.152.063.31.111t.32.08q.16.032.325.048.164.016.329.016h25.351q.165 0 .329-.016t.325-.048q.162-.032.32-.08.157-.048.31-.11.152-.064.297-.142.145-.077.282-.169.137-.091.265-.196.127-.104.244-.22.116-.117.22-.245.105-.127.197-.264.091-.137.169-.282.078-.146.14-.298.064-.152.112-.31.047-.157.08-.319.032-.162.048-.326t.016-.328v-.002q0-.165-.016-.329t-.048-.326q-.033-.161-.08-.319-.048-.158-.111-.31t-.141-.297q-.078-.146-.17-.283-.09-.137-.195-.264-.105-.127-.221-.244-.117-.116-.244-.22-.128-.105-.265-.197-.137-.091-.282-.17-.145-.077-.297-.14-.153-.063-.31-.11-.158-.048-.32-.08-.161-.033-.325-.049t-.329-.016zm-46.97 0H81.638q-.165 0-.329.016t-.325.048q-.162.033-.32.08-.157.048-.31.111-.152.063-.297.14-.145.079-.282.17-.137.092-.265.196-.127.105-.244.221-.116.117-.22.244-.105.127-.197.264-.091.137-.169.283-.078.145-.14.297-.064.152-.112.31-.047.158-.08.32-.032.161-.048.325t-.016.329v.002q0 .164.016.328t.049.326q.032.162.08.32.047.157.11.31.063.151.141.297.078.145.17.282.09.137.195.264.105.128.221.244.117.117.244.221.128.105.265.196.137.092.282.17.145.077.297.14.153.063.31.111.158.048.32.08.161.032.325.048t.329.016h25.352q.164 0 .328-.016t.326-.048q.161-.032.32-.08.157-.048.309-.11.152-.064.297-.142.146-.077.283-.169.137-.091.264-.196.127-.104.244-.22.116-.117.221-.245.105-.127.196-.264.092-.137.17-.282.077-.146.14-.298.063-.152.11-.31.049-.157.08-.319.033-.162.05-.326.015-.164.015-.328v-.002q0-.165-.016-.329t-.048-.326q-.032-.161-.08-.319t-.111-.31q-.063-.152-.14-.297-.078-.146-.17-.283-.091-.137-.196-.264-.105-.127-.221-.244-.117-.116-.244-.22-.127-.105-.264-.197-.137-.091-.283-.17-.145-.077-.297-.14-.152-.063-.31-.11-.158-.048-.32-.08-.16-.033-.325-.049-.164-.016-.328-.016zm-46.598 0H34.667q-.164 0-.328.016t-.326.048q-.161.033-.32.08-.157.048-.309.111t-.297.14q-.146.079-.283.17-.137.092-.264.196-.128.105-.244.221-.117.117-.221.244-.105.127-.196.264-.092.137-.17.283-.077.145-.14.297-.063.152-.11.31-.049.158-.08.32-.033.161-.05.325-.015.164-.015.329v.002q0 .164.016.328t.048.326q.032.162.08.32.048.157.11.31.064.151.142.297.077.145.169.282.091.137.196.264.104.128.22.244.117.117.245.221.127.105.264.196.137.092.282.17.146.077.298.14.152.063.31.111.157.048.32.08.16.032.325.048.164.016.328.016h25.725q.165 0 .329-.016t.325-.048q.162-.032.32-.08.157-.048.31-.11.151-.064.297-.142.145-.077.282-.169.137-.091.264-.196.128-.104.244-.22.117-.117.221-.245.105-.127.196-.264.092-.137.17-.282.077-.146.14-.298.063-.152.111-.31.048-.157.08-.319t.048-.326q.017-.164.017-.328v-.002q0-.165-.017-.329-.016-.164-.048-.326-.032-.161-.08-.319t-.11-.31q-.064-.152-.141-.297-.078-.146-.17-.283-.091-.137-.196-.264-.104-.127-.22-.244-.117-.116-.245-.22-.127-.105-.264-.197-.137-.091-.282-.17-.146-.077-.298-.14-.152-.063-.31-.11-.157-.048-.319-.08-.161-.033-.325-.049t-.33-.016zM180.8 28H8.2q-.202 0-.403.01t-.401.03q-.201.02-.4.049-.199.03-.396.069-.198.039-.393.088-.195.049-.388.107-.192.058-.382.126-.189.068-.375.145-.186.077-.368.163-.182.086-.36.181-.177.095-.35.199-.172.103-.34.215-.167.112-.329.232-.162.12-.317.247-.156.128-.305.263t-.291.278q-.143.142-.278.291-.135.15-.263.305-.127.155-.247.317t-.232.33q-.112.166-.215.34-.104.172-.199.35-.095.177-.181.359t-.163.368q-.077.186-.145.375-.067.19-.126.382-.058.193-.107.388-.049.195-.088.393-.04.197-.069.396-.03.2-.05.4-.019.2-.029.401-.01.201-.01.403v8.2h189v-8.2q0-.202-.01-.403-.01-.2-.03-.401-.02-.2-.049-.4-.03-.199-.069-.396-.039-.198-.088-.393-.049-.195-.107-.388-.058-.192-.126-.382t-.145-.375q-.077-.186-.163-.368-.086-.182-.181-.36-.095-.177-.199-.35-.103-.173-.215-.34-.112-.167-.232-.329-.12-.162-.247-.317-.128-.156-.263-.305-.135-.15-.278-.291-.142-.143-.291-.278-.15-.135-.305-.263-.155-.127-.317-.247t-.33-.232q-.166-.112-.34-.215-.172-.104-.35-.199-.177-.095-.359-.18-.182-.087-.368-.164-.186-.077-.375-.145-.19-.068-.382-.126-.193-.058-.388-.107-.195-.05-.393-.088-.197-.04-.396-.07-.2-.029-.4-.049t-.401-.03Q181.002 28 180.8 28zm30.199-28h167.002q.614 0 1.227.03.613.03 1.223.09.611.06 1.218.15t1.209.21q.602.12 1.197.27.596.148 1.183.326.587.179 1.165.385.578.207 1.145.442.567.235 1.121.497.555.263 1.096.552.542.29 1.068.605t1.037.656q.51.341 1.003.707.493.365.967.755.475.389.929.801.455.412.889.846t.846.889q.412.454.801.929.39.474.755.967.366.493.707 1.003.341.51.656 1.037.316.526.605 1.068.289.54.552 1.095.262.555.497 1.122.235.567.442 1.145.206.578.385 1.165.178.587.327 1.183.149.595.269 1.197.119.602.209 1.209.09.607.151 1.218.06.61.09 1.223.03.613.03 1.227v140.002q0 .614-.03 1.227-.03.613-.09 1.223-.061.611-.151 1.218t-.209 1.209q-.12.602-.269 1.197-.149.596-.327 1.183-.179.587-.385 1.165-.207.578-.442 1.145-.235.567-.497 1.121-.263.555-.552 1.096-.289.542-.605 1.068-.315.526-.656 1.037-.341.51-.707 1.003-.365.493-.755.967-.389.475-.801.929-.412.455-.846.889t-.889.846q-.454.412-.929.801-.474.39-.967.755-.493.366-1.003.707-.511.341-1.037.656-.526.316-1.068.605-.541.289-1.096.552-.554.262-1.121.497t-1.145.442q-.578.206-1.165.385-.587.178-1.183.327-.595.149-1.197.269-.602.119-1.209.209-.607.09-1.218.151-.61.06-1.223.09-.613.03-1.227.03H215.999q-.614 0-1.227-.03-.613-.03-1.223-.09-.611-.061-1.218-.151t-1.21-.209q-.601-.12-1.196-.269-.596-.149-1.183-.327-.587-.179-1.165-.385-.578-.207-1.145-.442-.567-.235-1.122-.497-.554-.263-1.095-.552-.542-.289-1.068-.605-.526-.315-1.037-.656-.51-.341-1.003-.707-.493-.365-.967-.755-.475-.389-.93-.801-.454-.412-.888-.846t-.846-.889q-.412-.454-.801-.929-.39-.474-.755-.967-.366-.493-.707-1.003-.34-.511-.656-1.037-.316-.526-.605-1.068-.29-.541-.552-1.096-.262-.554-.497-1.121t-.442-1.145q-.206-.578-.385-1.165-.178-.587-.327-1.183-.149-.595-.269-1.197-.12-.602-.21-1.209-.09-.607-.15-1.218-.06-.61-.09-1.223-.03-.613-.03-1.227V19.999q0-.49.024-.981.024-.49.072-.98.048-.488.12-.974.072-.485.168-.967.096-.481.215-.957.12-.477.262-.946.143-.47.308-.933.165-.462.353-.915.188-.454.398-.898.21-.444.441-.877.232-.432.484-.854.253-.42.525-.829.273-.408.566-.802.292-.395.604-.774.311-.38.64-.744.33-.363.678-.71.347-.348.71-.677.364-.33.744-.641.38-.312.774-.604.394-.293.802-.566.408-.272.83-.525.42-.252.853-.484.433-.231.877-.44.444-.21.898-.399.453-.188.915-.353.463-.165.933-.308.47-.142.946-.262.476-.119.957-.215.482-.096.967-.168.486-.072.975-.12.488-.048.979-.072.49-.024.981-.024z" fill="#E1E5F0"/><path d="M297.244 116.247c24.146 0 43.72-19.572 43.72-43.715 0-24.143-19.574-43.715-43.72-43.715-24.145 0-43.719 19.572-43.719 43.715 0 24.143 19.574 43.715 43.72 43.715z" fill="#D8DEED"/><path d="M293.7 92.274c-1.762.65-2.048.73-2.217.778-.043.012-.079.022-.13.04-3.254.824-6.043.721-6.56.618-1.86-.155-3.822-1.702-5.578-4.332-2.376-3.506-4.494-8.973-5.63-15.522-.207-.928-.258-1.857-.31-2.785l-.207-9.23c-.051-2.063.414-4.126 1.447-5.983.258-.515.516-.97.8-1.378a14.29 14.29 0 00-.296-.137c.258-.362.517-.672.724-1.033 3.983-5.525 12.312-6.248 16.14-5.835.465.051 2.12.258 4.5.413 1.293.103 2.328.103 2.949.155 2.31.093 4.2.074 5.821.058 3.79-.036 6.101-.059 8.818 1.388.725.361 2.38 1.29 3.828 3.098 4 5.003 3.144 11.44 2.863 13.552l-.017.132c-.932 5.886-4.346 9.501-5.38 10.999-1.2 1.766-3.2 3.915-4.67 5.409l-.17-5.018-1.886.743c-.466.963-.95 1.955-1.454 2.975a331.291 331.291 0 011.662 3.12s.785-.738 1.849-1.82l.57 16.67c0 .369-.159.738-.477.896a18.664 18.664 0 01-5.773 2.322c-4.397 1.003-8.157.264-10.276-.37a1.014 1.014 0 01-.742-.95l-.198-8.973z" fill="#F3F5F8" fill-rule="evenodd"/><path d="M275.019 54.343c1.035.471 2.226 1.205 3.624 1.52 3.883.838 7.3.262 9.372-.315 3.405 3.639 7.933 8.37 11.572 12.198l.057-.563s.319-1.9 1.752-3.695c.106-.106 1.062-1.214 2.495-1.69 2.548-.844 5.733.476 7.431 2.85.846 1.174 1.246 2.506 1.303 3.833 2.486-.13 5.017-.213 7.752-.091 0 0 .673-.734 1.035-1.834.518-1.573 1.605-8.335-2.9-13.89-1.45-1.835-3.158-2.779-3.883-3.146-2.756-1.468-5.105-1.445-8.97-1.408-1.653.016-3.584.035-5.942-.06-.621-.052-1.657-.052-3.003-.156-2.434-.158-4.09-.367-4.608-.42-3.884-.42-12.376.315-16.414 5.923-.156.262-.415.577-.673.944zm-.442 13.762c-.546-.114-.71-.855-.327-1.254.49-.456 1.364-.913 2.455-.913 2.237 0 4.638 1.54 2.128 2.224-1.473.4-3.22.172-4.256-.057zm10.457-.775c-.43.395-.269 1.13.268 1.242 1.02.226 2.738.508 4.295.057 2.47-.621.107-2.202-2.094-2.202-1.127 0-1.986.451-2.47.903z" fill="#E1E5F0" fill-rule="evenodd"/><path d="M278.438 71.67c0-.635-.356-1.218-.89-1.324-.356-.053-.667.053-.89.742-.578 1.642.401 4.292 1.157 3.497.445-.53.578-2.014.623-2.914zm9.262-.164c-.043-.64-.482-1.172-1.009-1.172-.35 0-.658.16-.833.852-.44 1.705.79 4.26 1.448 3.355.438-.639.438-2.13.395-3.035zm-3.874 10.702c.37-.111 1.268-.39 1.427-1.002 0-.111.053-.278 0-.39-.211-.39-.846-.167-1.797-.11-1.69.11-3.064-.057-3.064-.057s.37 1.114.634 1.448c.528.835 2.219.278 2.8.111zm-4.4-4.895c-.092.563.34 1.12.907 1.215.125.012.125.012.206.018.85.067 1.383.092 2.295.092a.488.488 0 100-.977 24.58 24.58 0 01-2.219-.089l-.163-.012c-.01-.004-.064-.075-.06-.101l.758-5.498.005-.067v-3.025a.488.488 0 00-.977 0v2.991l-.752 5.453zm33.117-9.83a7.134 7.134 0 01-.763 4.482c-.883 1.675-2.13 2.59-3.74 3.294a.488.488 0 10.39.895c.7-.305 1.255-.6 1.897-1.072a7.772 7.772 0 002.314-2.654 8.104 8.104 0 00.866-5.104.488.488 0 00-.964.16z" fill="#E1E5F0"/><path d="M236.427 136.76h68.878q.192 0 .383.02.191.019.38.056.188.037.371.093.184.056.361.13.178.073.347.163.169.09.329.197.16.107.308.229.148.121.284.257.135.136.257.284.122.148.228.308.107.16.198.329.09.17.163.346.074.178.13.361.055.184.093.372.037.188.056.38.019.19.019.382v.002q0 .192-.02.383-.018.191-.055.38-.038.188-.093.371-.056.184-.13.361-.073.178-.163.347-.091.17-.198.329-.106.16-.228.308-.122.148-.257.284-.136.135-.284.257-.149.122-.308.228-.16.107-.33.198-.168.09-.346.163-.177.074-.36.13-.184.055-.373.093-.188.037-.379.056-.19.019-.383.019h-68.878q-.192 0-.383-.019-.19-.019-.38-.056-.187-.038-.371-.093-.184-.056-.361-.13-.177-.073-.347-.163-.169-.09-.328-.198-.16-.106-.308-.228-.149-.122-.284-.257-.136-.136-.258-.284-.122-.149-.228-.308-.107-.16-.197-.33-.09-.168-.164-.346-.074-.177-.13-.36-.055-.184-.092-.373-.038-.188-.057-.379-.018-.19-.018-.383v-.002q0-.192.018-.383.02-.19.057-.379.037-.188.093-.372.055-.183.129-.36.073-.178.164-.347.09-.17.197-.329.106-.16.228-.308.122-.148.258-.284.135-.136.284-.257.148-.122.308-.229.16-.106.328-.197.17-.09.347-.164.177-.073.361-.129.184-.056.372-.093t.38-.056q.19-.02.382-.02z" fill="#D8DEED"/><path d="M236.183 157.763h122.61q.18 0 .36.018.179.018.356.053.176.035.348.087.173.052.339.121.166.07.325.154.158.085.308.185.149.1.289.214.139.114.266.241t.24.266q.115.14.215.29.1.149.185.307.085.159.154.325.069.166.12.339.053.172.088.348.035.177.053.356.018.179.017.359v.002q0 .18-.017.359-.018.179-.053.355-.035.177-.087.349-.052.172-.121.338-.07.166-.154.325-.085.159-.185.308-.1.15-.214.289-.114.14-.241.266-.127.128-.266.242-.14.114-.29.214-.15.1-.307.185-.16.084-.325.153-.166.069-.34.121-.171.052-.347.088-.177.035-.356.052-.18.018-.36.018h-122.61q-.18 0-.36-.018-.178-.017-.355-.052-.176-.036-.348-.088-.173-.052-.339-.12-.166-.07-.325-.154-.158-.085-.308-.185-.15-.1-.289-.214-.139-.114-.266-.242-.127-.127-.241-.266-.114-.14-.214-.289-.1-.15-.185-.308-.085-.159-.154-.325-.069-.166-.12-.338-.053-.172-.088-.349-.035-.176-.053-.355-.017-.18-.017-.36v-.001q0-.18.017-.36.018-.178.053-.355.035-.176.087-.348.052-.173.121-.339.07-.166.154-.325.085-.158.185-.308.1-.15.214-.289.114-.139.241-.266t.266-.241q.14-.114.29-.214.149-.1.307-.185.16-.085.325-.154.166-.069.339-.12.172-.053.348-.088.177-.035.356-.053.179-.018.359-.018z" fill="#F2F6FB"/><path d="M319.957 136.76h38.592q.192 0 .383.02.191.019.38.056.188.037.371.093.184.056.361.13.178.073.347.163.17.09.329.197.16.107.308.229.148.121.284.257.135.136.257.284.122.148.229.308.106.16.197.329.09.17.164.346.073.178.129.361.055.184.093.372.037.188.056.38.019.19.019.382v.002q0 .192-.019.383t-.056.38q-.038.188-.093.371-.056.184-.13.361-.073.178-.163.347-.09.17-.197.329-.107.16-.229.308-.122.148-.257.284-.136.135-.284.257-.149.122-.308.228-.16.107-.33.198-.168.09-.346.163-.177.074-.36.13-.184.055-.373.093-.188.037-.379.056-.19.019-.383.019h-38.592q-.192 0-.383-.019t-.38-.056q-.188-.038-.371-.093-.184-.056-.361-.13-.177-.073-.347-.163-.169-.09-.329-.198-.16-.106-.307-.228-.149-.122-.285-.257-.135-.136-.257-.284-.122-.149-.228-.308-.107-.16-.197-.33-.09-.168-.164-.346-.074-.177-.13-.36-.055-.184-.093-.373-.037-.188-.056-.379-.019-.19-.019-.383v-.002q0-.192.02-.383.018-.19.055-.379.038-.188.094-.372.055-.183.129-.36.073-.178.164-.347.09-.17.197-.329.106-.16.228-.308.122-.148.257-.284.136-.136.285-.257.148-.122.307-.229.16-.106.33-.197.169-.09.346-.164.177-.073.36-.129.184-.056.373-.093.188-.037.379-.056.19-.02.383-.02zm-22.137 65.889L330.18 182c.431.298.431.298.82.639l-12.097 36.06s-4.752-.638-8.424-2.681L304.992 223s-3.255-1.793-4.599-2.816c-1.344-1.024-3.393-3.272-3.393-3.272l5.487-7.025c-1.556-2.427-3.11-4.854-4.666-7.238z" fill="#D8DEED"/><path d="M523.001 72H382.999q-.491 0-.981.024-.491.024-.979.072-.489.048-.974.12-.486.072-.968.168-.481.096-.957.215-.477.12-.946.262-.47.143-.932.308-.463.165-.916.353-.454.188-.898.398-.443.21-.876.441-.433.232-.855.484-.421.253-.829.525-.408.273-.802.566-.395.292-.774.604-.38.311-.744.64-.363.33-.71.678-.348.347-.677.71-.33.364-.641.744-.312.38-.604.774-.293.394-.566.802-.272.408-.525.83-.252.42-.484.853-.231.433-.441.877t-.398.898q-.188.453-.353.915-.165.463-.308.933-.142.47-.262.946-.119.476-.215.957-.096.482-.168.968-.072.485-.12.974-.048.488-.072.979-.024.49-.024.981v121.002q0 .491.024.981.024.491.072.979.048.489.12.974.072.486.168.968.096.481.215.957.12.477.262.946.143.47.308.932.165.463.353.916.188.454.398.898.21.443.441.876.232.433.484.855.253.421.525.829.273.408.566.802.292.395.604.774.311.38.641.744.329.363.677.71.347.348.71.677.364.33.744.641.379.312.774.604.394.293.802.566.408.272.829.525.422.252.855.484.433.231.876.441.444.21.898.398.453.188.916.353.462.165.932.308.469.142.946.262.476.119.957.215.482.096.968.168.485.072.974.12.488.048.979.072.49.024.981.024h140.002q.49 0 .981-.024.49-.024.98-.072.488-.048.973-.12.486-.072.968-.168.481-.096.957-.215.477-.12.946-.262.47-.143.932-.308.463-.165.916-.353.454-.188.898-.398.443-.21.876-.441.433-.232.855-.484.42-.253.829-.525.408-.273.802-.566.395-.292.774-.604.38-.311.744-.641.363-.329.71-.677.348-.347.677-.71.33-.364.641-.744.312-.379.604-.774.293-.394.566-.802.272-.408.525-.829.252-.422.484-.855.231-.433.44-.876.21-.444.399-.898.188-.453.353-.916.165-.462.308-.932.142-.469.262-.946.119-.476.215-.957.096-.482.168-.968.072-.485.12-.974.048-.488.072-.979.024-.49.024-.981V91.999q0-.49-.024-.981-.024-.49-.072-.98-.048-.488-.12-.973-.072-.486-.168-.968-.096-.481-.215-.957-.12-.477-.262-.946-.143-.47-.308-.932-.165-.463-.353-.916-.188-.454-.398-.898-.21-.443-.441-.876-.232-.433-.484-.855-.253-.42-.525-.829-.273-.408-.566-.802-.292-.395-.604-.774-.311-.38-.64-.744-.33-.363-.678-.71-.347-.348-.71-.677-.364-.33-.744-.641-.38-.312-.774-.604-.394-.293-.802-.566-.408-.272-.83-.525-.42-.252-.854-.484-.433-.231-.876-.44-.444-.21-.898-.399-.453-.188-.916-.353-.462-.165-.932-.308-.47-.142-.946-.262-.476-.119-.957-.215-.482-.096-.968-.168-.485-.072-.974-.12-.488-.048-.979-.072-.49-.024-.981-.024z" fill="#F2F6FB"/><path d="M534.103 72H371.897q-.218 0-.436.01-.218.011-.436.033-.217.021-.433.053t-.43.075q-.215.043-.426.096-.212.053-.421.116-.209.064-.415.137-.206.074-.407.157-.202.084-.4.177-.197.094-.39.197-.192.103-.38.215-.187.112-.369.233-.181.122-.357.252-.175.13-.344.269-.169.138-.331.285-.162.147-.316.301t-.301.316q-.147.162-.285.331-.139.169-.269.344-.13.176-.252.357-.121.182-.233.37-.112.187-.215.38-.103.192-.197.39-.093.197-.177.399-.083.201-.157.407-.073.206-.137.415-.063.209-.116.42-.053.212-.096.427-.043.214-.075.43t-.053.433q-.022.218-.032.436-.011.218-.011.436v8.9h180v-8.9q0-.218-.01-.436-.011-.218-.033-.436-.021-.217-.053-.433t-.075-.43q-.043-.215-.096-.426-.053-.212-.116-.421-.064-.21-.137-.415-.074-.206-.157-.407-.084-.202-.177-.4-.094-.197-.197-.39-.103-.192-.215-.38-.112-.187-.233-.369-.122-.181-.252-.357-.13-.175-.269-.344-.138-.169-.285-.33-.147-.163-.301-.317t-.316-.301q-.162-.147-.331-.285-.169-.139-.344-.27-.176-.13-.357-.25-.182-.122-.37-.234-.187-.112-.38-.215-.192-.103-.39-.197-.197-.093-.399-.177-.201-.083-.407-.157-.206-.073-.415-.137-.209-.063-.42-.116-.212-.053-.427-.096-.214-.043-.43-.075t-.433-.053q-.218-.022-.436-.032-.218-.011-.436-.011z" fill="#E1E5F0"/><path d="M531.802 85.658a4.143 4.143 0 01-4.148-4.139 4.143 4.143 0 014.148-4.139 4.143 4.143 0 014.147 4.14 4.143 4.143 0 01-4.147 4.138z" fill="#FF5645"/><path d="M518.737 85.658c-2.405 0-4.354-1.853-4.354-4.139 0-2.285 1.95-4.139 4.354-4.139 2.406 0 4.355 1.854 4.355 4.14 0 2.285-1.95 4.138-4.355 4.138z" fill="#FFCB3D"/><path d="M505.673 85.658a4.143 4.143 0 01-4.148-4.139 4.143 4.143 0 014.148-4.139 4.143 4.143 0 014.147 4.14 4.143 4.143 0 01-4.147 4.138z" fill="#3ABF7C"/><path d="M414.843 140.29c0 20.801 16.898 37.664 37.742 37.664 20.844 0 37.742-16.863 37.742-37.664 0-20.8-16.898-37.663-37.742-37.663-20.844 0-37.742 16.863-37.742 37.663zm89.8 50.908h-58.909q-.152 0-.304.015-.151.015-.3.045-.15.03-.296.074t-.287.102q-.14.058-.275.13-.135.072-.262.157-.126.085-.244.181-.118.097-.226.205-.108.108-.204.225-.097.118-.182.245-.084.127-.156.261-.072.135-.13.276-.059.14-.103.286-.044.146-.074.296t-.045.3q-.015.153-.015.305v.002q0 .152.015.304t.045.301q.03.15.074.296t.103.287q.058.14.13.275.072.134.156.261.085.127.182.245.096.117.204.225.108.108.226.205.118.096.244.181.127.085.262.157.134.072.275.13.14.058.287.103.146.044.295.074.15.03.301.044.152.015.304.015h58.91q.152 0 .304-.015.151-.015.3-.044.15-.03.296-.074.146-.045.287-.103.14-.058.275-.13.135-.072.261-.157.127-.085.245-.181.118-.097.226-.205.107-.108.204-.225.097-.118.182-.245.084-.127.156-.261.072-.135.13-.275.059-.141.103-.287t.074-.296q.03-.149.045-.3.015-.153.015-.305v-.002q0-.152-.015-.304t-.045-.301q-.03-.15-.074-.296t-.103-.286q-.058-.141-.13-.276-.072-.134-.156-.26-.085-.128-.182-.246-.097-.117-.204-.225-.108-.108-.226-.205-.118-.096-.245-.181-.126-.085-.26-.157-.135-.072-.276-.13-.14-.058-.287-.102-.146-.045-.295-.074-.15-.03-.301-.045-.152-.015-.305-.015zm-70.921 0h-32.78q-.152 0-.304.015t-.301.045q-.15.03-.296.074t-.286.102q-.141.058-.276.13-.134.072-.261.157t-.245.181q-.117.097-.225.205-.108.108-.205.225-.096.118-.181.245-.085.127-.157.261-.071.135-.13.276-.058.14-.102.286-.045.146-.074.296-.03.15-.045.3-.015.153-.015.305v.002q0 .152.015.304t.045.301q.029.15.074.296.044.146.102.287.059.14.13.275.072.134.157.261t.18.245q.098.117.206.225.108.108.225.205.118.096.245.181.127.085.26.157.136.072.277.13.14.058.286.103.146.044.296.074.149.03.3.044.153.015.305.015h32.78q.152 0 .304-.015.151-.015.301-.044.15-.03.295-.074.146-.045.287-.103.141-.058.275-.13.135-.072.262-.157.126-.085.244-.181.118-.097.226-.205.108-.108.204-.225.097-.118.182-.245.084-.127.156-.261.072-.135.13-.275.059-.141.103-.287t.074-.296q.03-.149.045-.3.015-.153.015-.305v-.002q0-.152-.015-.304t-.045-.301q-.03-.15-.074-.296t-.103-.286q-.058-.141-.13-.276-.072-.134-.156-.26-.085-.128-.182-.246-.096-.117-.204-.225-.108-.108-.226-.205-.118-.096-.244-.181-.127-.085-.262-.157-.134-.072-.275-.13-.14-.058-.287-.102-.146-.045-.295-.074-.15-.03-.301-.045-.152-.015-.304-.015z" fill="#474BFF" fill-rule="evenodd"/><path d="M504.437 208.581H401.149q-.162 0-.324.016t-.322.048q-.16.031-.315.078-.155.048-.305.11-.151.062-.294.139-.144.076-.28.167-.134.09-.26.193-.125.103-.24.218-.115.115-.218.241-.104.126-.194.261-.09.135-.167.279-.077.143-.14.293-.061.15-.108.306-.048.156-.08.315-.031.16-.047.322-.016.161-.016.324v.002q0 .163.016.324.016.162.048.322.03.16.079.315.047.155.109.306.062.15.139.293.077.144.167.279.09.135.194.26.103.127.218.242.115.115.24.218.126.103.26.193.136.09.28.167.143.077.294.14.15.061.305.109.156.047.315.078.16.032.322.048t.324.016h103.288q.162 0 .324-.016t.321-.048q.16-.031.315-.078.156-.048.306-.11t.294-.139q.143-.076.278-.167.136-.09.261-.193.126-.103.241-.218.115-.115.218-.241t.194-.261q.09-.135.167-.279.076-.143.139-.293.062-.15.109-.306t.079-.315q.032-.16.048-.322.016-.161.016-.324v-.002q0-.163-.016-.324-.016-.162-.048-.322t-.079-.315q-.047-.155-.11-.306-.062-.15-.138-.293-.077-.144-.167-.279-.09-.135-.194-.26-.103-.127-.218-.242-.115-.115-.24-.218-.126-.103-.262-.193-.135-.09-.278-.167-.144-.077-.294-.14-.15-.061-.306-.109-.155-.047-.315-.078-.16-.032-.321-.048-.162-.016-.324-.016z" fill="#E1E5F0"/><path d="M440.075 151.196c-1.237.687-3.62 2.104-6.325 4.079-3.3 2.49-.642 7.428 3.438 6.398l5.73-1.46c1.65-.43 2.795-1.76 2.887-3.35l.137-2.361c.138-2.104-1.65-3.864-3.896-3.864-.687.042-1.375.214-1.97.558z" fill="#D8DEED"/><path d="M447.632 145.58c-.044-.045-.044-.09-.044-.09-.09-.406-.495-.766-.899-.811-.809-.225-2.022-.676-3.055-1.713-1.438-1.487-2.291-3.875-1.572-6.219.674-2.253 2.83-4.101 4.986-4.056 1.213.045 2.202.631 2.337.721 0 .045.045.045.045.045.898.631 2.111-.045 2.066-1.126l-.45-11.538c0-.72.54-1.352 1.259-1.397a18.995 18.995 0 003.863-.54 242.34 242.34 0 002.696-.361c2.201-.316 6.155-.18 9.659 1.262a12.512 12.512 0 014.133 3.2c.315.36.629.766.943 1.261.09.136.18.27.27.451a10.081 10.081 0 011.393 5.093l.134 8.067c-.044.81-.044 1.622-.18 2.433-1.347 10.05-5.345 17.216-9.074 17.712-.45.09-2.875.315-5.75-.316-.27-.09-.046 0-3.91-1.262l-.525-.171-1.072 9.144c-1.792 2.247-13.083-2.733-13.083-2.733l1.3-11.413-.045-3.084.403-2.468 3.785.655.387-.746z" fill="#F2F6FB" fill-rule="evenodd"/><path d="M446.313 151.08c1.23-2.525 1.317-5.12 1.292-6.169 1.742-3.24 3.789-6.99 5.193-9.062 3.157-3.498 6.315-6.95 9.518-10.449 1.804.449 4.782.852 8.165.045 1.083-.269 2.307-.823 3.119-1.227a14.47 14.47 0 00-1.126-1.498c-1.218-1.435-2.644-2.322-4.133-3.04-3.519-1.435-7.604-1.5-9.814-1.186-.316.045-1.308.18-2.707.359-.406.045-.812.09-1.308.135-1.173.09-2.075.179-2.617.224-2.083.136-3.78.16-5.228.181-3.317.048-5.332.077-7.718 1.388-.632.36-2.075 1.211-3.293 2.78-2.449 3.152-2.691 6.89-2.52 9.446-.742 3.233-2.085 11.254 1.5 15.777 4.564 5.758 4.016 7.648 4.016 7.648l2.184-1.494-.693 1.08 2.164-.624c1.906-1.091 3.133-2.597 3.92-4.143l.137-.093-.051-.078z" fill="#D8DEED" fill-rule="evenodd"/><path d="M454.245 140.637l-2.225-5.042s-.711-1.427-2.269-2.454c-.133-.089-1.112-.669-2.313-.714-2.135-.044-4.27 1.785-4.938 4.016-.756 2.32.089 4.685 1.513 6.112 1.423 1.428 3.247 1.74 3.826 1.874l2.313-.223" fill="#F2F6FB"/><path d="M461.71 145.257c-3.433 0-6.221-2.683-6.221-6.001 0-.55.076-1.082.22-1.588l-2.81-.7a.414.414 0 11.202-.804l2.892.721c.953-2.136 3.156-3.63 5.717-3.63 3.408 0 6.182 2.645 6.22 5.93l1.732.144c.447-2.97 2.934-5.247 5.942-5.247 3.325 0 6.014 2.783 6.014 6.208 0 3.426-2.69 6.209-6.014 6.209-2.268 0-4.24-1.295-5.265-3.206l.079.926c.001.515-.365 1.005-.85 1.018-.311.025-.5.025-1.23.01-.329-.006-.555-.01-.822-.01a.414.414 0 110-.827c.274 0 .505.003.84.01.707.014.88.014 1.159-.009.012-.001.075-.085.075-.156l-.354-4.13-1.354-.113c-.385 2.96-3.005 5.245-6.172 5.245zm-5.392-6.001c0-.53.083-1.042.238-1.524a.413.413 0 00.164-.44c.806-1.882 2.735-3.21 4.99-3.21 2.98 0 5.392 2.32 5.392 5.174 0 2.854-2.411 5.173-5.392 5.173-2.981 0-5.392-2.32-5.392-5.173zm24.47 1.034c0 2.975-2.324 5.38-5.184 5.38-2.86 0-5.185-2.405-5.185-5.38 0-2.974 2.325-5.38 5.185-5.38 2.86 0 5.184 2.406 5.184 5.38zm-8.989-.744a1.05 1.05 0 011.128-.908c.347 0 .65.26.78.864.26 1.47-1.257 3.543-1.82 2.636-.348-.562-.218-1.815-.088-2.592zm-5.311 8.192c-.277-.09-.949-.408-1.028-.86a.86.86 0 00-.009-.1c-.008-.071-.017-.142.01-.172.124-.179.47-.103.96.003.131.028.273.059.422.088 1.265.226 2.332.226 2.332.226s-.355.77-.553.996c-.426.532-1.647.022-2.106-.17l-.028-.011z" fill="#D8DEED" fill-rule="evenodd"/><path d="M463.09 138.718a1.05 1.05 0 011.128-.908c.346 0 .65.26.78.865.26 1.469-1.258 3.543-1.821 2.635-.347-.561-.217-1.814-.087-2.592z" fill="#D8DEED"/><path d="M126.716 366.854V262.85c0-8.284 6.67-15.536 14.952-15.674l64.763.549q.367.003.732.024.366.02.73.06.364.038.726.095.362.056.72.13.36.075.714.166.354.092.704.2.35.11.694.235.344.125.68.268.339.142.669.3.33.16.652.334.322.174.635.364t.616.395q.304.205.597.425t.575.453q.282.234.552.481.27.247.528.507t.503.533q.245.272.476.556.23.284.449.579.217.295.419.6.203.305.39.62.187.314.359.638.172.323.328.655.155.331.295.67.139.338.262.683.123.346.229.696.105.35.194.706.088.355.159.715.07.359.125.721.053.363.089.727.036.365.054.73.018.366.018.732v104.214q0 .737-.073 1.47-.072.735-.216 1.458-.144.723-.358 1.428-.214.706-.497 1.387-.282.68-.63 1.33-.348.652-.758 1.265-.41.613-.877 1.182-.47.57-.99 1.09-.522.522-1.092.99-.57.467-1.184.876-.613.41-1.264.757-.65.347-1.332.628-.681.282-1.387.496-.706.213-1.43.356-.722.143-1.456.215-.734.07-1.472.07l-64.624.629c-8.282-.15-14.948-7.427-14.948-15.711zm136.496 22.293H128.87c-1.273 0-2.301.979-2.301 2.153v.245c0 1.175 1.028 2.153 2.203 2.153h38.727l-13.024 23.884a26524.983 26524.983 0 00-27.808 51.046l-15.324 28.093c-.539.979-.098 2.25.93 2.839l.196.097c1.028.588 2.35.245 2.84-.685l57.33-105.274h38.187l57.33 105.274c.49.93 1.812 1.224 2.84.685l.196-.097c1.028-.588 1.469-1.86.93-2.84l-15.324-28.092a25887.947 25887.947 0 01-27.808-51.046l-13.024-23.884h47.246c1.224 0 2.203-.978 2.203-2.153v-.245c0-1.174-1.028-2.153-2.203-2.153z" fill="#D8DEED" fill-rule="evenodd"/><path d="M228.941 500.053a2.2 2.2 0 01-1.326-.44 1.952 1.952 0 01-.143-.099l-49.154-36.608c-.98-.734-1.175-2.154-.441-3.132.734-.98 2.154-1.175 3.133-.44l48.629 36.216h26.473c1.224 0 2.253 1.028 2.253 2.251 0 1.224-1.029 2.252-2.253 2.252h-27.171zm84.061-.053h77.795c1.175 0 2.203-.979 2.203-2.202 0-1.224-.98-2.203-2.203-2.203h-77.795a2.194 2.194 0 00-2.203 2.203c0 1.223.98 2.202 2.203 2.202z" fill="#FFCB3D" fill-rule="evenodd"/><path d="M256.259 493.98a10.03 10.03 0 00-1.077-2.447c-1.42-2.251-3.965-3.817-3.965-3.817-2.938-1.91-5.631-3.182-8.813-4.552a186.753 186.753 0 00-6.756-2.79c-.881-2.838-1.763-5.677-2.644-8.564-1.665-5.53-3.33-11.012-4.945-16.494l-29.473-21.387-17.818 25.246c.083.047.164.1.242.158l48.629 36.217h26.474c.08 0 .16.005.24.013.027-.157.046-.31.053-.457-.05-.343-.05-.734-.147-1.126zm84.937-37.049s7.203 8.45 7.497 8.598c5.58 5.97 10.917 9.298 14.785 11.256 2.987 1.517 12.974 5.726 17.478 7.782 2.301 1.028 4.504 2.251 6.659 3.573.146.097.244.146.391.293 1.126 1.028 2.84 2.888 3.476 5.09.098.294.098.538.147.832.033.163.022.326.011.49a3.98 3.98 0 00-.01.244v.05a2.54 2.54 0 01-.184.552 2.229 2.229 0 00-.65-.096h-77.794c-.34 0-.662.076-.949.212a2.414 2.414 0 01-.177-.914V467.21c0-.049 29.32-10.278 29.32-10.278z" fill="#474961" fill-rule="evenodd"/><path d="M155.578 321.248l115.822.591a25.888 25.888 0 017.727.408c3.369.706 6.326 2.012 8.88 3.599 5.08-.769 10.313.222 14.753 3.128l10.188 6.702c10.253 6.789 12.282 21.238 4.574 31.917-.043.088-.109.11-.152.198a307.92 307.92 0 01-1.835 2.507l33.389 68.536c3.409 7.55-.392 17.343-7.944 20.748l-22.9 9.033c-7.886 2.536-19.344-2.475-23.17-9.822-5.466-10.492-12.183-26.1-18.946-40.378-15.12 17.338-28.8 32.525-34.824 40.609a8.628 8.628 0 01-3.418 2.643c-4.545 2.084-8.97-.921-18.171-7.172-2.142-1.455-4.544-3.087-7.266-4.87-12.268-7.977-17.827-10.44-17.828-15.71.009-2.874 1.615-5.141 2.354-6.09 10.49-13.623 21.26-27.188 32.043-40.454-18.295.547-40.334.654-53.431-1.224-25.426-3.647-19.845-64.9-19.845-64.9z" fill="#A339FF" fill-rule="evenodd"/><path d="M287.663 325.887c5.11-.77 10.385.245 14.868 3.2l10.233 6.781c10.299 6.868 12.399 21.392 4.73 32.082-.042.088-.108.11-.15.198a343.04 343.04 0 01-1.88 2.583l-15.416-31.644c-.804-1.488-4.86-8.572-12.385-13.2zm-11.706 93.103c-14.995 17.265-28.544 32.374-34.517 40.436a8.533 8.533 0 01-3.41 2.639c-4.541 2.07-8.985-.968-18.23-7.291a519.359 519.359 0 00-7.297-4.926c-12.322-8.071-17.901-10.571-17.927-15.864-.004-2.887 1.594-5.157 2.329-6.106 10.417-13.605 21.114-27.149 31.823-40.395 13.635-.408 25.174-1.06 29.353-1.31 1.975 3.265 4.145 6.875 6.437 10.706 3.682 6.154 7.57 13.926 11.439 22.11z" fill="#444" fill-opacity=".177" fill-rule="evenodd"/><path d="M154.174 317.42c0 .154.055.36.109.513.272 1.59 84.799 3.487 85.397 2.923 5.435-4.871 4.24-16.512 4.24-16.512-.17-4.56-.34-8.806-.506-12.756 6.942-.735 18.885-1.906 18.885-1.906 1.956-.242 3.812-2.285 3.686-4.412.398-5.165-3.044-15.384-3.793-17.548-1.714-4.845-4.798-14.193-5.924-18.5-3.133-12.186-7.001-16.738-8.323-18.06-1.518-1.565-2.986-2.642-3.966-3.327-6.609-4.552-13.61-5.237-17.184-5.335-.098-.049-.196-.049-.294-.049l-8.004-.113c-4.165-.97-8.257-1.281-11.595-1.532l-.113-.008c-4.85-.338-9.855-.686-14.792-.056l-13.621.192c-.098 0-.196 0-.294.049-3.574.098-10.575.783-17.184 5.334-.98.686-2.448 1.762-3.966 3.329-1.322 1.32-5.19 5.873-8.323 18.059-1.126 4.307-4.21 13.655-5.924 18.5-.642 1.855-2.463 10.372-3.403 14.853a2.05 2.05 0 00-.304.739c-.036.224-.03.444.012.659-.18.86-.285 1.377-.285 1.377s.427.008 1.204.031c.555.443 1.314.753 2.179.84l13.28 1.406c-2.142 13.25-2.394 24.363-1.194 31.31z" fill="#FFCB3D" fill-rule="evenodd"/><path d="M210.418 233.007l-7.768-4.559-5.12 5.3q.239.548.604 1.02.366.47.836.838.165.128.34.242l.776 50.929q.002.105.025.207.024.102.068.198.044.095.107.179.063.084.142.153l7.13 6.222q.074.064.158.113.084.048.177.08.092.031.188.044.097.013.194.007.097-.006.192-.03.094-.025.182-.067t.165-.1q.078-.059.144-.131l6.456-7.172q.072-.08.126-.175.053-.094.086-.198.032-.103.04-.211.01-.108-.004-.215l-6.69-50.66q.486-.401.854-.913t.592-1.101z" fill="#DE3190" fill-rule="evenodd"/><path d="M201.843 220.11c2.83.495 13.269.6 13.563 3.96.294 3.36-.334 11.65-.334 11.65l-12.36-7.284-9.101 9.467s-7.967-12.582-2.533-15.719c5.434-3.136 7.936-2.567 10.765-2.073z" fill="#8C2A00" fill-opacity=".2"/><path d="M223.584 182.872l1.481 8.637c.12.874.24 1.748.217 2.65.13 6.306-.85 11.78-2.425 15.477-1.157 2.767-2.703 4.563-4.405 5.043-.462.19-3.039.79-6.216.608a2.409 2.409 0 00-.128-.013c-.18-.015-.496-.04-2.695-.405l1.454 8.461a.94.94 0 01-.505.995c-1.81.95-5.092 2.285-9.26 2.147a17.231 17.231 0 01-5.65-1.097c-.317-.088-.526-.396-.592-.732l-2.406-15.086c-1.644-1.126-3.973-2.814-5.446-4.28-1.233-1.206-5.06-3.953-6.99-9.263-.013-.038-.027-.077-.04-.12-.644-1.913-2.605-7.748.205-13.125a11 11 0 012.995-3.573c3.23-2.621 6.235-2.307 13.34-3.986.567-.16 1.529-.346 2.712-.675 2.182-.574 3.683-1.065 4.106-1.197 1.158-.357 2.802-.687 4.653-.806 3.462-.28 7.919.195 11.54 3.35.584.435 1.09.985 1.624 1.679 1.26 1.6 2.105 3.38 2.43 5.311zm-81.839 101.662l30.867 3.27-.104.977c19.86 3.036 55.21 11.273 66.293 13.9 1.495.012 3.094.171 4.72.427l-.32-11.529 5.172-.57 12.234-1.179 2.732 19.934c3.377 2.238 8.446 6.54 8.214 12.088h-36.28l.022-.07h-79.076c-17.543-5.128-19.057-23.452-17.176-38.102l.524.015c.555.442 1.314.753 2.179.84z" fill="#DB9E75" fill-rule="evenodd"/><path d="M263.327 309.674s-4.765-3.107-8.293-4.333c-3.53-1.226-11.495-2.541-11.495-2.541l-.338-11.292 17.406-1.678 2.72 19.844z" fill="#8C2A00" fill-opacity=".2" fill-rule="evenodd"/><path d="M178.104 260.642c-2.856 11.3-5.885 23.554-6.663 27.264a.734.734 0 101.438.302c.771-3.68 3.801-15.94 6.649-27.207a.734.734 0 00-1.424-.36zm60.966 2.524c1.383 11.572 2.947 24.099 3.55 27.841a.734.734 0 101.45-.234c-.598-3.712-2.163-16.243-3.542-27.782a.734.734 0 10-1.458.175z" fill="#482D1F" fill-rule="evenodd"/><path d="M209.52 214.91l-7.454-1.687 8.129 5.992-.674-4.305z" fill="#482D1F"/><path d="M220.664 191.91c-.558.207-.84.81-.727 1.387.207.807.613 2.124 1.187 2.511.957.562 1.547-2.045.632-3.413-.362-.578-.717-.609-1.092-.486zm-8.458 1.643c-.577.112-.964.685-.9 1.271.111.826.373 2.171.966 2.655.88.676 1.776-1.89.997-3.335-.314-.587-.679-.666-1.063-.591z" fill="#482D1F" fill-rule="evenodd"/><path d="M217.171 203.955c-.355-.03-1.218-.112-1.465-.612-.019-.096-.095-.231-.066-.336.127-.374.741-.294 1.616-.414 1.556-.203 2.778-.59 2.778-.59s-.15 1.026-.334 1.361c-.389.824-2.02.642-2.529.591z" fill="#482D1F"/><path d="M219.613 199.934c.53-.198.847-.811.651-1.336l-1.707-4.963.005.029-.017-.066.01.027-.544-2.796a.49.49 0 00-.961.187l.55 2.835.018.065 1.725 5.013a.276.276 0 01-.028.07l-.003.005-.153.042a24.19 24.19 0 01-2.098.494.49.49 0 10.186.96c.87-.169 1.373-.29 2.172-.51l.194-.056zm-1.059-6.309l.002.005.001.005-.002-.005v-.005z" fill="#482D1F" fill-rule="evenodd"/><path d="M187.912 195.608a7.09 7.09 0 001.484 4.042c1.079 1.402 2.337 2.037 3.876 2.414a.49.49 0 11-.233.95 8.233 8.233 0 01-1.88-.677 7.305 7.305 0 01-2.535-2.084c-1.003-1.266-1.629-2.949-1.69-4.609a.49.49 0 01.978-.036z" fill="#482D1F"/><path d="M223.919 184.296l-25.527 6.887a8.28 8.28 0 00-1.146-1.204c-.115-.078-1.177-.918-2.558-1.099-2.457-.32-5.106 1.44-6.223 3.9a6.375 6.375 0 00-.58 2.619c-2.612 1.03-5.339 2.007-7.437 2.524 0 0-.684-.565-1.179-1.517-.706-1.359-2.806-7.384-.095-13.196a10.036 10.036 0 012.631-3.503c1.415-1.261 5.544-3.675 10.993-4.194.501-.148 2.357-.333 3.445-.644 1.334-.36 6.082-1.717 11.022-2.358 3.2-.414 6.876.303 8.24.79 7.57 2.702 8.414 10.995 8.414 10.995zm-.896 4.862c.461-.19.484-.842.082-1.113-.507-.3-1.35-.535-2.312-.349-1.97.383-3.833 2.09-1.51 2.238 1.373.132 2.873-.359 3.74-.776zm-9.8 1.156c.45.262.427.915-.035 1.104-.924.379-2.358.956-3.836.794-2.313-.099-.46-1.855 1.51-2.237 1.01-.196 1.853.039 2.36.34z" fill="#482D1F" fill-rule="evenodd"/><path d="M144.534 314.51h291.307q.757 0 1.443.32.487.103.924.34.437.237.789.589.238.238.426.519.187.28.316.592.13.312.195.643.066.331.066.668V496.33q0 .168-.016.335-.017.168-.05.333-.032.165-.081.326-.05.16-.114.317-.064.155-.143.304-.08.148-.173.288-.094.14-.2.27-.107.13-.226.249-.12.119-.25.226-.13.107-.27.2-.14.094-.288.173-.148.079-.304.144-.155.064-.316.113t-.327.082q-.165.033-.332.049-.168.017-.336.017h-.002q-.168 0-.336-.017-.167-.016-.332-.05-.165-.032-.326-.081-.162-.05-.317-.113-.156-.065-.304-.144-.148-.08-.288-.173-.14-.093-.27-.2-.13-.107-.25-.226-.119-.12-.225-.25-.107-.13-.2-.27-.094-.14-.173-.287-.08-.15-.144-.304-.065-.156-.113-.317-.05-.161-.082-.326-.033-.165-.05-.333-.016-.167-.016-.335V321.363H144.534q-.168 0-.335-.017-.168-.016-.333-.05-.165-.032-.326-.08-.161-.05-.316-.114-.156-.065-.304-.144-.149-.08-.288-.173-.14-.093-.27-.2-.131-.107-.249-.226-.119-.119-.226-.249-.107-.13-.2-.27-.094-.14-.173-.288-.08-.148-.144-.304-.064-.155-.113-.316t-.082-.326q-.033-.165-.049-.333-.017-.167-.017-.335v-.002q0-.169.017-.336.016-.168.049-.333t.082-.326q.049-.16.113-.316.064-.155.144-.304.079-.148.173-.288.093-.14.2-.27.107-.13.226-.25.118-.118.249-.225.13-.107.27-.2.139-.094.288-.173.148-.08.304-.144.155-.064.316-.113t.326-.081q.165-.033.333-.05.167-.016.335-.016z" fill="#D8DEED" fill-rule="evenodd"/><path d="M394.717 300.807h-78.83q-.174 0-.348.008-.174.009-.347.026-.174.017-.346.043-.172.025-.343.06-.17.033-.34.076-.169.042-.335.092-.167.051-.331.11-.164.058-.325.125t-.318.141q-.158.075-.312.157-.153.082-.303.171-.149.09-.294.187t-.285.2q-.14.104-.274.215-.135.11-.264.227t-.252.24q-.123.123-.24.252-.117.13-.228.264-.11.135-.214.275t-.2.284q-.097.145-.187.295-.09.149-.171.303-.083.153-.157.31-.075.158-.141.32-.067.16-.126.324-.058.164-.109.33-.05.167-.093.336-.042.17-.076.34-.034.171-.06.343-.025.173-.042.346t-.026.347q-.008.174-.008.348v.002q0 .175.008.349.009.174.026.347t.043.346q.025.172.059.343.034.17.076.34.043.169.093.335.05.167.11.33.058.165.125.326.066.16.14.318.075.158.158.311.082.154.171.303.09.15.187.295.096.144.2.284.104.14.214.275t.228.264q.117.129.24.252.123.123.252.24.13.117.264.227.135.11.274.215.14.103.285.2.145.097.294.187.15.09.303.171.154.082.312.157.157.074.318.14.16.068.325.126.164.059.33.11.167.05.336.092.17.043.34.077t.343.06q.172.025.346.042.173.017.347.026.174.008.348.008h78.83q.174 0 .348-.008.174-.01.347-.026.174-.017.346-.043.172-.025.343-.06.171-.033.34-.076.169-.042.336-.092.166-.051.33-.11.164-.058.325-.125t.319-.141q.157-.075.31-.157.154-.082.304-.171.15-.09.294-.187.145-.097.285-.2.14-.104.274-.215.135-.11.264-.227.13-.117.252-.24.123-.123.24-.252.117-.13.228-.264.11-.135.214-.275t.2-.284q.097-.145.187-.295t.172-.303q.082-.153.156-.31.075-.158.141-.32.067-.16.126-.324.058-.164.109-.33.05-.167.093-.336.042-.17.076-.34.034-.171.06-.343.025-.173.042-.346t.026-.347q.009-.174.009-.349v-.002q0-.174-.009-.348t-.026-.347q-.017-.173-.042-.346-.026-.172-.06-.343-.034-.17-.076-.34-.042-.169-.093-.335-.05-.167-.11-.33-.058-.165-.125-.326-.066-.16-.14-.318-.075-.158-.157-.311-.082-.154-.172-.303-.09-.15-.186-.295-.097-.144-.2-.284-.105-.14-.215-.275t-.228-.264q-.117-.129-.24-.252-.123-.123-.252-.24-.129-.117-.264-.227-.134-.111-.274-.215-.14-.103-.285-.2-.145-.097-.294-.187-.15-.09-.303-.171-.154-.082-.311-.157-.158-.074-.319-.141-.16-.067-.325-.125-.164-.059-.33-.11-.167-.05-.336-.092-.169-.043-.34-.077-.17-.034-.343-.06-.172-.025-.346-.042-.173-.017-.347-.026-.174-.008-.348-.008zm4.406-28.387h-78.83q-.174 0-.348.01-.174.008-.347.025t-.346.042q-.172.026-.343.06-.17.034-.34.076-.169.043-.335.093-.167.05-.33.11-.165.058-.326.125-.16.066-.318.14-.158.075-.311.158-.154.082-.303.171-.15.09-.295.187-.144.096-.284.2-.14.104-.275.214t-.264.228q-.129.117-.252.24-.123.123-.24.252-.117.13-.227.264-.11.135-.215.274-.103.14-.2.285-.097.145-.187.294-.09.15-.171.303-.082.154-.157.312-.074.157-.14.318-.068.16-.126.325-.059.164-.11.33-.05.167-.092.336-.043.17-.077.34t-.06.343q-.025.172-.042.346-.017.173-.026.347-.008.174-.008.348v.002q0 .174.008.348.01.174.026.348.017.173.043.345.025.173.06.344.033.17.076.34.042.168.092.335.051.167.11.33.058.165.125.326.067.16.141.318.075.157.157.311t.171.303q.09.15.187.294.097.145.2.285.104.14.215.275.11.134.227.263.117.13.24.253.123.123.252.24.13.117.264.227.135.11.275.214t.284.201q.145.097.295.186.15.09.303.172.153.082.31.157.158.074.32.14.16.067.324.126t.33.11q.167.05.336.092.17.042.34.076.171.034.343.06.173.026.346.043.173.017.347.025.174.009.348.009h78.83q.174 0 .348-.009.174-.008.348-.025.173-.017.345-.043.173-.026.343-.06.171-.034.34-.076.17-.042.336-.093.167-.05.33-.109.165-.059.326-.125.16-.067.318-.141.157-.075.311-.157t.303-.172q.15-.09.294-.186.145-.097.285-.2.14-.104.275-.215.134-.11.263-.227.13-.117.253-.24.123-.124.24-.253.117-.129.227-.263.11-.135.214-.275t.2-.285q.098-.145.187-.294.09-.15.172-.303.082-.154.157-.311.074-.157.14-.318.067-.161.126-.325t.11-.331q.05-.167.092-.336.042-.169.076-.34.034-.17.06-.343.026-.172.043-.345.017-.174.025-.348.009-.174.009-.348v-.002q0-.174-.009-.348-.008-.174-.025-.347-.017-.174-.043-.346-.026-.172-.06-.343-.034-.17-.076-.34-.042-.169-.093-.335-.05-.167-.109-.331t-.125-.325q-.067-.161-.141-.318-.075-.158-.157-.312-.082-.153-.172-.303-.09-.149-.186-.294-.097-.145-.2-.285-.104-.14-.215-.274-.11-.135-.227-.264t-.24-.252q-.124-.123-.253-.24-.129-.117-.263-.228-.135-.11-.275-.214t-.285-.2q-.145-.097-.294-.187-.15-.09-.303-.171-.154-.083-.311-.157-.158-.075-.318-.141-.161-.067-.325-.126-.164-.058-.331-.109-.167-.05-.336-.093-.169-.042-.34-.076-.17-.034-.343-.06-.172-.025-.345-.042-.174-.017-.348-.026-.174-.008-.348-.008z" fill="#474961"/><path d="M384.436 286.614h-78.83q-.174 0-.348.008-.174.009-.348.026-.173.017-.345.043-.172.025-.343.06-.171.033-.34.075-.169.043-.336.093-.166.05-.33.11-.164.058-.325.125t-.319.141q-.157.075-.31.157-.154.082-.304.171-.15.09-.294.187-.145.096-.285.2-.14.104-.274.214-.135.11-.264.228-.13.117-.252.24-.124.123-.24.252-.117.13-.228.264-.11.135-.214.275t-.2.284q-.098.145-.187.295-.09.149-.172.303-.082.153-.156.31-.075.158-.141.319-.067.16-.126.325-.058.164-.109.33-.05.167-.093.336-.042.17-.076.34-.034.17-.06.343-.025.173-.042.346t-.026.347q-.009.174-.009.348v.002q0 .175.009.349t.026.347q.017.173.042.345.026.173.06.344.034.17.076.34.042.168.093.335.05.167.11.33.058.165.125.326.066.16.14.318.075.158.157.311.082.154.172.303.09.15.186.294.097.145.2.285.105.14.215.275.11.134.228.263.116.13.24.253.123.123.252.24.129.117.264.227.134.11.274.215.14.103.285.2.145.097.294.186.15.09.303.172.154.082.311.157.158.074.319.14.16.068.325.126.164.059.33.11.167.05.336.092.169.043.34.077.17.034.343.06.172.025.345.042.174.017.348.025.174.009.348.009h78.83q.174 0 .348-.009.174-.008.347-.025.174-.017.346-.043.172-.025.343-.06.17-.033.34-.076.169-.042.335-.093.167-.05.331-.109.164-.058.325-.125t.318-.141q.158-.075.312-.157.153-.082.303-.172.149-.09.294-.186.145-.097.285-.2.14-.104.274-.215.135-.11.264-.227t.252-.24q.123-.123.24-.253.117-.129.228-.263.11-.135.214-.275t.2-.285q.097-.144.187-.294t.171-.303q.083-.153.157-.31.074-.158.141-.32.067-.16.125-.324.06-.164.11-.33.05-.168.093-.337.042-.169.076-.34.034-.17.06-.343.025-.172.042-.345t.026-.347q.008-.174.008-.349v-.002q0-.174-.008-.348-.009-.174-.026-.347t-.043-.346q-.025-.172-.06-.343-.033-.17-.075-.34-.043-.169-.093-.335-.05-.167-.11-.331-.058-.164-.125-.325-.067-.16-.141-.318-.074-.158-.157-.311-.082-.154-.171-.303-.09-.15-.187-.295-.096-.145-.2-.284-.104-.14-.214-.275t-.228-.264q-.117-.129-.24-.252-.123-.123-.252-.24-.13-.117-.264-.228-.135-.11-.274-.214-.14-.104-.285-.2-.145-.097-.294-.187-.15-.09-.303-.171-.154-.082-.312-.157-.157-.074-.318-.141-.16-.067-.325-.125-.164-.06-.33-.11-.167-.05-.336-.093-.17-.042-.34-.076-.17-.034-.343-.06-.172-.025-.346-.042-.173-.017-.347-.026-.174-.008-.348-.008zm7.344-28.386h-78.83q-.174 0-.348.008-.174.009-.348.026-.173.017-.345.042-.173.026-.343.06-.171.034-.34.076-.17.043-.336.093-.167.05-.33.11-.165.058-.326.125-.16.066-.318.14-.157.075-.311.157-.154.083-.303.172-.15.09-.294.186-.145.097-.285.2-.14.105-.275.215-.134.11-.263.228-.13.117-.253.24-.123.123-.24.252-.117.13-.227.264t-.214.274q-.104.14-.201.285-.097.145-.186.294-.09.15-.172.303-.082.154-.157.311-.074.158-.14.319-.067.16-.126.325-.059.164-.11.33-.05.167-.092.336-.042.169-.076.34-.034.17-.06.343-.026.172-.043.346-.017.173-.025.347-.009.174-.009.348v.002q0 .174.009.348.008.174.025.348.017.173.043.345.026.173.06.343.034.171.076.34.042.17.093.336.05.167.109.33.059.165.125.325.067.161.141.319.075.157.157.311t.172.303q.09.15.186.294.097.145.2.285.104.14.215.274.11.135.227.264.117.13.24.252.124.124.253.24.129.118.263.228.135.11.275.214t.285.2q.145.098.294.187.15.09.303.172.154.082.311.156.158.075.318.142.161.066.325.125t.331.11q.167.05.336.092.169.042.34.076.17.034.343.06.172.025.345.043.174.017.348.025.174.009.348.009h78.83q.174 0 .348-.009.174-.008.347-.025.173-.018.346-.043.172-.026.343-.06.17-.034.34-.076.168-.042.335-.093.167-.05.33-.11.165-.058.326-.124.16-.067.318-.142.158-.074.311-.156.154-.082.303-.172.15-.09.295-.186.144-.097.284-.2.14-.104.275-.215.134-.11.264-.227.129-.117.252-.24.123-.124.24-.253.117-.129.227-.264.11-.134.215-.274.103-.14.2-.285.097-.145.187-.294.09-.15.171-.303.082-.154.157-.311.074-.158.14-.319.068-.16.126-.324.059-.164.11-.331.05-.167.092-.336.043-.169.077-.34.034-.17.06-.343.025-.172.042-.345.017-.174.025-.348.009-.174.009-.348v-.002q0-.174-.009-.348-.008-.174-.025-.347-.017-.174-.043-.346-.025-.172-.06-.343-.033-.171-.076-.34-.042-.169-.093-.336-.05-.166-.109-.33-.058-.164-.125-.325t-.141-.319q-.075-.157-.157-.31-.082-.154-.171-.304-.09-.15-.187-.294-.097-.145-.2-.285-.104-.14-.215-.274-.11-.135-.227-.264t-.24-.252q-.123-.123-.252-.24-.13-.117-.264-.228-.135-.11-.275-.214t-.284-.2q-.145-.097-.295-.187t-.303-.172q-.153-.082-.31-.156-.158-.075-.32-.141-.16-.067-.324-.126-.164-.058-.33-.109-.168-.05-.336-.093-.17-.042-.34-.076-.171-.034-.343-.06-.173-.025-.346-.042t-.347-.026q-.174-.008-.349-.008z" fill="#DE3190"/></svg>