<svg data-name="Group 140" xmlns="http://www.w3.org/2000/svg" width="38.297" height="39.851"><path data-name="Path 736" d="M17.555.037c-2.9.343-4.516 1.409-4.158 2.749.249.958 1.386 1.612 3.418 1.986a19.445 19.445 0 004.711-.008c2.437-.436 3.707-1.425 3.38-2.64-.343-1.293-2.3-2.056-5.4-2.118-.775-.011-1.647 0-1.951.031zm2.71 1.643a7.82 7.82 0 012.858.7c.148.1.055.171-.537.389a12.25 12.25 0 01-6.066.234 3.7 3.7 0 01-1.417-.545 1.072 1.072 0 01.381-.226 10.754 10.754 0 014.781-.552z"/><path data-name="Path 737" d="M18.606 6.633a6.948 6.948 0 00-1.69.428 5.867 5.867 0 00-3.4 6.813l.047.187-.568-.272c-1-.467-1.285-.506-3.457-.5A8.742 8.742 0 017 13.141a9.028 9.028 0 01-5.085-3.917c-.444-.732-.662-.927-1.075-.927a.658.658 0 00-.529.218c-.21.21-.218.257-.272 1.308a21.414 21.414 0 00.467 6c.56 2.118 1.767 3.535 3.34 3.932.311.078.358.117.389.335a7.616 7.616 0 00.771 2.811 3.856 3.856 0 002.391 1.877c.257.039.3.086.452.49a6.569 6.569 0 001.542 2.173l.584.545-.794 2.554-.794 2.562v.9a5.485 5.485 0 001.55 3.971 5.544 5.544 0 003.084 1.744c.9.187 11.376.187 12.272 0a5.813 5.813 0 004.6-5.038c.109-1.1.008-1.62-.81-4.252l-.756-2.437.592-.545a6.565 6.565 0 001.542-2.173c.156-.405.195-.452.452-.49a3.787 3.787 0 001.768-1.012c.779-.849 1.113-1.736 1.394-3.675.031-.218.078-.257.405-.343a4.436 4.436 0 002.788-2.461 11.192 11.192 0 00.88-3.185 29.652 29.652 0 00.124-4.275c-.054-1.051-.062-1.1-.272-1.308a.647.647 0 00-.545-.218c-.405 0-.631.218-1.246 1.207a9.05 9.05 0 01-4.89 3.637 8.177 8.177 0 01-2.546.148c-2.173-.015-2.453.031-3.457.5l-.568.272.047-.187a5.9 5.9 0 00-2.391-6.269 6.171 6.171 0 00-1.869-.826 7.968 7.968 0 00-1.929-.154zm1.6 1.783a4.235 4.235 0 011.869 1.09 4.149 4.149 0 01-1.5 6.821 3.1 3.1 0 01-1.417.179 3.1 3.1 0 01-1.417-.179 4.169 4.169 0 01-2.219-5.879 4.341 4.341 0 012.554-2.025 5.179 5.179 0 012.126-.003zm-17.4 4.337a10.489 10.489 0 003.387 1.877 11.236 11.236 0 003.707.351l1.674-.023.67.327a5.387 5.387 0 011.222.849c.779.724.786.747.42 1.184a7.1 7.1 0 00-1.378 2.43c-.584 1.97-1.947 6.362-1.993 6.409-.07.078-.561-.475-.833-.942l-.2-.343.2-.163a.8.8 0 00.039-1.261.875.875 0 00-.67-.2c-1.659-.031-2.266-.351-2.741-1.433a6.667 6.667 0 01-.389-1.666v-.242h.9a2.345 2.345 0 001.121-.133.824.824 0 00.163-1.277l-.23-.23-1.355-.008a47.406 47.406 0 01-1.729-.039c-1.3-.086-2.141-.95-2.648-2.71a13.226 13.226 0 01-.436-3.107v-.631l.335.312c.18.171.522.475.756.669zm33.686 1.145c-.3 2.3-1.1 3.8-2.211 4.166a7.166 7.166 0 01-2.453.195l-1.394.008-.226.226a.836.836 0 00.218 1.324 4.418 4.418 0 001.067.086h.9v.194a7.35 7.35 0 01-.381 1.7 2.261 2.261 0 01-1.043 1.184 2.837 2.837 0 01-1.277.249c-.919.039-1.145.124-1.34.529a.865.865 0 00.281.965l.2.164-.257.405a5.905 5.905 0 01-.506.708l-.257.3-.128-.381c-.358-1.122-1.635-5.287-1.768-5.786a7.786 7.786 0 00-1.307-2.569 3.838 3.838 0 01-.475-.67 3.467 3.467 0 01.631-.685 4.865 4.865 0 011.3-.919l.67-.335 1.674.023a10.417 10.417 0 003.9-.42 10.3 10.3 0 003.582-2.149l.662-.584.023.576a11.271 11.271 0 01-.092 1.496zm-19.74 3.816a5.914 5.914 0 004.835-.008l.522-.233.311.241a5.646 5.646 0 011.9 2.889c.109.366 1.036 3.387 2.071 6.72 1.768 5.708 1.877 6.089 1.877 6.658a4.152 4.152 0 01-2.92 4.01c-.545.171-.576.171-6.19.171s-5.646 0-6.19-.171a4.279 4.279 0 01-2.842-3.06 5.152 5.152 0 01-.062-1.09c.031-.6.21-1.23 1.845-6.5 1-3.216 1.923-6.19 2.048-6.619a5.2 5.2 0 011.471-2.554 5.134 5.134 0 01.747-.677 3.44 3.44 0 01.57.223z"/></svg>