<svg xmlns="http://www.w3.org/2000/svg" width="20.5" height="25"><path data-name="Icon material-lock-outline" d="M10.25 19.048a2.484 2.484 0 002.563-2.381 2.569 2.569 0 00-5.125 0 2.484 2.484 0 002.562 2.381zm7.688-10.715h-1.282V5.952A6.194 6.194 0 0010.25 0a6.194 6.194 0 00-6.406 5.952v2.381H2.563A2.484 2.484 0 000 10.714v11.9A2.484 2.484 0 002.563 25h15.375a2.484 2.484 0 002.562-2.381v-11.9a2.484 2.484 0 00-2.562-2.386zM6.278 5.952a3.842 3.842 0 013.972-3.69 3.842 3.842 0 013.972 3.69v2.381H6.278zm11.66 16.667H2.563v-11.9h15.375z" fill="#909090"/></svg>